<svg width="65" height="32" viewBox="0 0 65 32" fill="none" xmlns="http://www.w3.org/2000/svg">
<g clip-path="url(#clip0_2042_1287)">
<path d="M30.6195 6.0444L30.6193 6.04451L22.2193 14.4445L22.2132 14.4506L22.2072 14.4569C21.8064 14.8718 21.5847 15.4275 21.5897 16.0044C21.5947 16.5812 21.8261 17.133 22.234 17.5409C22.6419 17.9488 23.1937 18.1802 23.7705 18.1852C23.839 18.1858 23.9072 18.1832 23.9749 18.1775V24.4C23.9749 24.9835 24.2066 25.5431 24.6192 25.9556C25.0318 26.3682 25.5914 26.6 26.1749 26.6H28.5749C29.1583 26.6 29.7179 26.3682 30.1305 25.9556C30.5431 25.5431 30.7749 24.9835 30.7749 24.4V22C30.7749 21.947 30.7959 21.8961 30.8334 21.8586C30.8709 21.8211 30.9218 21.8 30.9749 21.8H33.3749C33.4279 21.8 33.4788 21.8211 33.5163 21.8586C33.5538 21.8961 33.5749 21.947 33.5749 22V24.4C33.5749 24.9835 33.8066 25.5431 34.2192 25.9556C34.6318 26.3682 35.1914 26.6 35.7749 26.6H38.1749C38.7583 26.6 39.3179 26.3682 39.7305 25.9556C40.1431 25.5431 40.3749 24.9835 40.3749 24.4V18.1775C40.4425 18.1832 40.5107 18.1858 40.5792 18.1852C41.1561 18.1802 41.7078 17.9488 42.1157 17.5409C42.5236 17.133 42.755 16.5812 42.76 16.0044C42.765 15.4275 42.5433 14.8718 42.1425 14.4569L42.1365 14.4506L42.1304 14.4445L33.7304 6.04451L33.0233 6.75161L33.7303 6.0444C33.3177 5.63196 32.7582 5.40027 32.1749 5.40027C31.5915 5.40027 31.032 5.63196 30.6195 6.0444Z" stroke="#6D6D6D" stroke-width="2"/>
</g>
<defs>
<clipPath id="clip0_2042_1287">
<rect width="24" height="24" fill="white" transform="translate(20.1748 4)"/>
</clipPath>
</defs>
</svg>
