<svg xmlns="http://www.w3.org/2000/svg" xmlns:xlink="http://www.w3.org/1999/xlink" width="500" zoomAndPan="magnify" viewBox="0 0 375 374.999991" height="500" preserveAspectRatio="xMidYMid meet" version="1.0"><defs><clipPath id="70713902db"><path d="M 164 341 L 211 341 L 211 355.5 L 164 355.5 Z M 164 341 " clip-rule="nonzero"/></clipPath></defs><path fill="#fcd837" d="M 148.207031 70.574219 C 160.621094 70.574219 171.859375 75.613281 180.003906 83.75 L 180.027344 83.773438 C 182.941406 86.6875 185.460938 90 187.492188 93.625 C 189.527344 90 192.046875 86.6875 194.960938 83.773438 L 194.984375 83.75 C 203.128906 75.613281 214.378906 70.574219 226.78125 70.574219 C 238.648438 70.574219 249.445312 75.171875 257.496094 82.695312 L 257.496094 82.71875 C 264.460938 89.226562 269.363281 97.925781 271.085938 107.703125 C 281.132812 109.226562 290.074219 114.058594 296.769531 121.046875 C 304.523438 129.136719 309.289062 140.09375 309.289062 152.140625 C 309.289062 157.203125 308.445312 162.085938 306.875 166.660156 C 305.84375 169.699219 304.472656 172.585938 302.84375 175.296875 C 306.246094 178.800781 309.089844 182.863281 311.203125 187.320312 C 313.988281 193.164062 315.542969 199.699219 315.542969 206.566406 C 315.542969 218.972656 310.503906 230.199219 302.359375 238.351562 L 302.335938 238.375 C 294.449219 246.238281 283.679688 251.207031 271.75 251.527344 L 271.789062 252.976562 C 271.789062 265.378906 266.746094 276.609375 258.601562 284.746094 L 258.578125 284.769531 C 250.429688 292.910156 239.183594 297.945312 226.78125 297.945312 C 214.367188 297.945312 203.128906 292.910156 194.984375 284.769531 L 194.960938 284.746094 C 192.046875 281.835938 189.527344 278.519531 187.492188 274.898438 C 185.460938 278.519531 182.941406 281.835938 180.027344 284.746094 L 180.003906 284.769531 C 171.859375 292.910156 160.609375 297.945312 148.207031 297.945312 C 135.792969 297.945312 124.554688 292.910156 116.410156 284.769531 L 116.386719 284.746094 C 108.242188 276.609375 103.199219 265.367188 103.199219 252.976562 L 103.238281 251.527344 C 91.308594 251.207031 80.539062 246.238281 72.652344 238.375 L 72.628906 238.351562 C 64.484375 230.210938 59.441406 218.972656 59.441406 206.566406 C 59.441406 199.699219 61 193.179688 63.785156 187.320312 C 65.898438 182.863281 68.742188 178.800781 72.140625 175.296875 C 70.511719 172.585938 69.144531 169.6875 68.113281 166.660156 C 66.554688 162.085938 65.699219 157.203125 65.699219 152.140625 C 65.699219 140.09375 70.464844 129.125 78.21875 121.046875 C 84.914062 114.058594 93.867188 109.226562 103.902344 107.703125 C 105.625 97.925781 110.527344 89.226562 117.492188 82.71875 L 117.492188 82.695312 C 125.53125 75.183594 136.339844 70.574219 148.207031 70.574219 Z M 151.808594 109.046875 C 153.925781 106.730469 157.542969 106.574219 159.847656 108.703125 C 162.167969 110.816406 162.320312 114.417969 160.191406 116.734375 C 160.15625 116.769531 153.261719 124.480469 142.878906 128.472656 C 144.035156 130.8125 144.996094 133.402344 145.699219 136.277344 C 146.433594 139.332031 144.558594 142.410156 141.5 143.144531 C 138.445312 143.882812 135.367188 142.003906 134.628906 138.953125 C 130.300781 121.128906 111.074219 118.8125 108.835938 118.597656 C 100.050781 119.074219 92.144531 122.949219 86.421875 128.910156 C 80.65625 134.925781 77.125 143.097656 77.125 152.117188 C 77.125 155.941406 77.753906 159.589844 78.910156 162.976562 C 80.109375 166.503906 81.894531 169.773438 84.117188 172.648438 C 85.996094 175.082031 85.601562 178.585938 83.199219 180.546875 C 79.371094 183.671875 76.234375 187.640625 74.082031 192.167969 C 72.023438 196.503906 70.859375 201.386719 70.859375 206.542969 C 70.859375 215.824219 74.617188 224.210938 80.679688 230.28125 C 86.757812 236.34375 95.152344 240.097656 104.4375 240.097656 L 105.316406 240.085938 C 107.800781 233.359375 114.472656 220.363281 129.929688 215.394531 C 132.925781 214.433594 136.136719 216.085938 137.101562 219.078125 C 138.066406 222.074219 136.410156 225.28125 133.414062 226.242188 C 118.492188 231.03125 115.199219 246.621094 115.1875 246.667969 L 115.175781 246.738281 L 115.164062 246.785156 C 114.972656 247.808594 114.828125 248.78125 114.746094 249.710938 C 114.664062 250.625 114.617188 251.703125 114.617188 252.929688 C 114.617188 262.207031 118.375 270.597656 124.4375 276.667969 C 130.515625 282.726562 138.910156 286.480469 148.195312 286.480469 C 157.480469 286.480469 165.875 282.726562 171.953125 276.667969 C 178.015625 270.597656 181.773438 262.207031 181.773438 252.929688 L 181.773438 235.640625 C 176.898438 240.464844 169.945312 244.101562 160.015625 244.660156 C 156.875 244.824219 154.1875 242.425781 154.011719 239.289062 C 153.84375 236.152344 156.246094 233.457031 159.394531 233.289062 C 179.515625 232.160156 181.574219 211.378906 181.773438 207.257812 L 181.773438 115.523438 C 181.773438 106.242188 178.015625 97.855469 171.953125 91.78125 C 165.875 85.722656 157.480469 81.96875 148.195312 81.96875 C 139.324219 81.96875 131.25 85.402344 125.257812 91.011719 C 120.394531 95.539062 116.898438 101.5 115.414062 108.226562 C 120.859375 109.523438 129.003906 112.398438 135.652344 118.695312 C 145.019531 116.601562 151.773438 109.070312 151.808594 109.035156 Z M 193.214844 124.324219 C 198.089844 119.503906 205.042969 115.867188 214.972656 115.308594 C 218.113281 115.140625 220.800781 117.542969 220.976562 120.691406 C 221.144531 123.828125 218.742188 126.511719 215.589844 126.691406 C 195.472656 127.832031 193.414062 148.597656 193.214844 152.722656 L 193.214844 252.953125 C 193.214844 262.230469 196.972656 270.621094 203.035156 276.691406 C 209.109375 282.75 217.507812 286.503906 226.792969 286.503906 C 236.078125 286.503906 244.472656 282.75 250.550781 276.691406 C 256.613281 270.621094 260.371094 262.230469 260.371094 252.953125 C 260.371094 251.730469 260.324219 250.648438 260.242188 249.734375 C 260.15625 248.804688 260.015625 247.820312 259.824219 246.808594 L 259.8125 246.761719 L 259.800781 246.691406 C 259.800781 246.667969 258.921875 242.519531 256.03125 237.851562 C 235.28125 256.398438 215.03125 240.050781 214.972656 240.003906 C 212.5 238.066406 212.058594 234.476562 214 232.007812 C 215.9375 229.535156 219.527344 229.09375 222 231.03125 C 222.035156 231.054688 234.722656 241.320312 248.253906 229.535156 C 246.339844 228.214844 244.128906 227.085938 241.585938 226.265625 C 238.589844 225.304688 236.933594 222.097656 237.898438 219.101562 C 238.863281 216.109375 242.074219 214.457031 245.070312 215.417969 C 260.539062 220.375 267.199219 233.371094 269.683594 240.109375 L 270.5625 240.121094 C 279.847656 240.121094 288.242188 236.367188 294.320312 230.308594 C 300.382812 224.234375 304.140625 215.847656 304.140625 206.566406 C 304.140625 201.398438 302.988281 196.527344 300.917969 192.191406 C 298.765625 187.664062 295.640625 183.695312 291.800781 180.570312 C 289.398438 178.625 289.003906 175.105469 290.882812 172.671875 C 293.117188 169.796875 294.890625 166.527344 296.089844 163 C 297.246094 159.613281 297.875 155.964844 297.875 152.140625 C 297.875 143.121094 294.332031 134.949219 288.578125 128.9375 C 282.855469 122.960938 274.949219 119.097656 266.164062 118.621094 C 263.914062 118.835938 244.699219 121.152344 240.371094 138.976562 C 239.632812 142.027344 236.554688 143.90625 233.5 143.167969 C 230.441406 142.433594 228.566406 139.355469 229.300781 136.300781 C 234 116.949219 250.550781 110.414062 259.597656 108.25 C 258.113281 101.527344 254.605469 95.5625 249.753906 91.035156 C 243.75 85.425781 235.6875 81.992188 226.816406 81.992188 C 217.53125 81.992188 209.136719 85.746094 203.058594 91.808594 C 196.996094 97.878906 193.238281 106.265625 193.238281 115.546875 L 193.238281 124.335938 Z M 230.730469 163.773438 C 230.347656 160.648438 227.507812 158.414062 224.378906 158.792969 C 221.25 159.171875 219.015625 162.011719 219.398438 165.136719 C 219.410156 165.234375 223.046875 199.082031 259.707031 197.644531 C 262.84375 197.515625 265.292969 194.863281 265.164062 191.726562 C 265.035156 188.589844 262.382812 186.144531 259.242188 186.273438 C 233.238281 187.296875 230.730469 163.84375 230.714844 163.773438 Z M 118.539062 178.910156 C 115.425781 179.347656 112.535156 177.1875 112.082031 174.074219 C 111.644531 170.960938 113.808594 168.074219 116.933594 167.632812 C 117.03125 167.621094 150.691406 162.371094 158.789062 198.121094 C 159.480469 201.1875 157.554688 204.226562 154.484375 204.929688 C 151.417969 205.617188 148.363281 203.691406 147.671875 200.628906 C 141.929688 175.273438 118.597656 178.910156 118.539062 178.921875 Z M 118.539062 178.910156 " fill-opacity="1" fill-rule="nonzero"/><path fill="#fcd837" d="M 158.3125 323.835938 L 216.671875 323.835938 C 220.109375 323.835938 222.917969 326.640625 222.917969 330.074219 C 222.917969 333.507812 220.109375 336.3125 216.671875 336.3125 L 158.3125 336.3125 C 154.878906 336.3125 152.070312 333.507812 152.070312 330.074219 C 152.070312 326.640625 154.878906 323.835938 158.3125 323.835938 Z M 158.3125 323.835938 " fill-opacity="1" fill-rule="evenodd"/><path fill="#fcd837" d="M 148.21875 306.335938 L 226.769531 306.335938 C 230.207031 306.335938 233.011719 309.140625 233.011719 312.574219 C 233.011719 316.007812 230.207031 318.8125 226.769531 318.8125 L 148.21875 318.8125 C 144.78125 318.8125 141.976562 316.007812 141.976562 312.574219 C 141.976562 309.140625 144.78125 306.335938 148.21875 306.335938 Z M 148.21875 306.335938 " fill-opacity="1" fill-rule="evenodd"/><g clip-path="url(#70713902db)"><path fill="#fcd837" d="M 210.242188 341.660156 C 205.007812 350.070312 196.769531 355.5 187.492188 355.5 C 178.21875 355.5 169.96875 350.070312 164.746094 341.660156 Z M 210.242188 341.660156 " fill-opacity="1" fill-rule="evenodd"/></g><path fill="#fcd837" d="M 179.671875 7.828125 C 179.671875 3.503906 183.175781 0 187.507812 0 C 191.835938 0 195.34375 3.503906 195.34375 7.828125 L 195.34375 41.132812 C 195.34375 45.457031 191.835938 48.960938 187.507812 48.960938 C 183.175781 48.960938 179.671875 45.457031 179.671875 41.132812 Z M 179.671875 7.828125 " fill-opacity="1" fill-rule="nonzero"/><path fill="#fcd837" d="M 270.574219 27.96875 C 272.738281 24.238281 277.519531 22.964844 281.253906 25.128906 C 284.984375 27.292969 286.257812 32.066406 284.09375 35.796875 L 267.421875 64.644531 C 265.257812 68.375 260.480469 69.648438 256.746094 67.484375 C 253.011719 65.324219 251.738281 60.546875 253.902344 56.816406 Z M 270.574219 27.96875 " fill-opacity="1" fill-rule="nonzero"/><path fill="#fcd837" d="M 339.207031 90.832031 C 342.941406 88.695312 347.710938 89.976562 349.847656 93.707031 C 351.988281 97.4375 350.707031 102.203125 346.972656 104.351562 L 318.101562 121.011719 C 314.367188 123.148438 309.597656 121.867188 307.449219 118.136719 C 305.308594 114.40625 306.589844 109.640625 310.324219 107.488281 L 339.195312 90.832031 Z M 339.207031 90.832031 " fill-opacity="1" fill-rule="nonzero"/><path fill="#fcd837" d="M 367.175781 179.5625 C 371.480469 179.5625 374.972656 183.054688 374.972656 187.355469 C 374.972656 191.65625 371.480469 195.148438 367.175781 195.148438 L 333.84375 195.148438 C 329.539062 195.148438 326.042969 191.65625 326.042969 187.355469 C 326.042969 183.054688 329.539062 179.5625 333.84375 179.5625 Z M 367.175781 179.5625 " fill-opacity="1" fill-rule="nonzero"/><path fill="#fcd837" d="M 347.019531 270.359375 C 350.753906 272.519531 352.027344 277.296875 349.863281 281.027344 C 347.695312 284.757812 342.917969 286.03125 339.183594 283.867188 L 310.3125 267.210938 C 306.578125 265.046875 305.308594 260.269531 307.472656 256.539062 C 309.636719 252.808594 314.414062 251.539062 318.148438 253.699219 Z M 347.019531 270.359375 " fill-opacity="1" fill-rule="nonzero"/><path fill="#fcd837" d="M 35.78125 283.878906 C 32.046875 286.019531 27.277344 284.734375 25.136719 281.003906 C 23 277.273438 24.28125 272.507812 28.015625 270.359375 L 56.886719 253.699219 C 60.621094 251.5625 65.386719 252.84375 67.539062 256.578125 C 69.679688 260.308594 68.398438 265.070312 64.664062 267.210938 L 35.792969 283.867188 Z M 35.78125 283.878906 " fill-opacity="1" fill-rule="nonzero"/><path fill="#fcd837" d="M 7.824219 195.148438 C 3.519531 195.148438 0.0273438 191.65625 0.0273438 187.355469 C 0.0273438 183.054688 3.519531 179.5625 7.824219 179.5625 L 41.15625 179.5625 C 45.460938 179.5625 48.957031 183.054688 48.957031 187.355469 C 48.957031 191.65625 45.460938 195.148438 41.15625 195.148438 Z M 7.824219 195.148438 " fill-opacity="1" fill-rule="nonzero"/><path fill="#fcd837" d="M 27.980469 104.339844 C 24.246094 102.179688 22.972656 97.402344 25.136719 93.671875 C 27.300781 89.941406 32.082031 88.671875 35.816406 90.832031 L 64.6875 107.488281 C 68.421875 109.652344 69.691406 114.429688 67.527344 118.160156 C 65.363281 121.890625 60.585938 123.160156 56.851562 121 Z M 27.980469 104.339844 " fill-opacity="1" fill-rule="nonzero"/><path fill="#fcd837" d="M 90.90625 35.761719 C 88.765625 32.03125 90.050781 27.265625 93.785156 25.128906 C 97.515625 22.976562 102.285156 24.273438 104.4375 28.003906 L 121.109375 56.851562 C 123.25 60.582031 121.964844 65.347656 118.230469 67.496094 C 114.496094 69.636719 109.730469 68.351562 107.578125 64.621094 L 90.90625 35.773438 Z M 90.90625 35.761719 " fill-opacity="1" fill-rule="nonzero"/></svg>