<svg width="65" height="32" viewBox="0 0 65 32" fill="none" xmlns="http://www.w3.org/2000/svg">
<path d="M32.2493 25.7513C26.8732 25.7513 22.4993 21.3774 22.4993 16.0013C22.4993 10.6253 26.8732 6.25134 32.2493 6.25134C37.6254 6.25134 41.9993 10.6253 41.9993 16.0013C41.9993 21.3774 37.6254 25.7513 32.2493 25.7513ZM32.2493 7.75134C27.7025 7.75134 23.9993 11.4545 23.9993 16.0013C23.9993 20.5482 27.7025 24.2513 32.2493 24.2513C36.7962 24.2513 40.4993 20.5506 40.4993 16.0013C40.4993 11.4521 36.7986 7.75134 32.2493 7.75134Z" fill="#6D6D6D"/>
<path d="M35.4243 17.6901C34.6085 17.6901 33.8204 17.3282 33.2049 16.6714C32.596 16.011 32.232 15.1618 32.1735 14.2654C32.1046 13.295 32.4023 12.4019 33.0117 11.7516C33.6212 11.1014 34.473 10.7516 35.4243 10.7516C36.3685 10.7516 37.2231 11.1089 37.8307 11.7577C38.4383 12.4066 38.7435 13.3048 38.6746 14.2664C38.615 15.1622 38.2511 16.0107 37.6432 16.6714C37.0271 17.3282 36.2395 17.6901 35.4243 17.6901Z" fill="#6D6D6D"/>
<path d="M27.9309 17.8481C26.5357 17.8481 25.3088 16.5584 25.1963 14.9728C25.1386 14.1608 25.3908 13.4103 25.9075 12.8594C26.4241 12.3085 27.1367 12.0155 27.9304 12.0155C28.7241 12.0155 29.4363 12.3174 29.9496 12.866C30.463 13.4145 30.7232 14.1702 30.6646 14.9756C30.5502 16.5588 29.3237 17.8481 27.9309 17.8481Z" fill="#6D6D6D"/>
<path d="M39.9551 20.6554C39.8806 20.4351 39.6992 20.2003 39.3354 19.9776C38.2358 19.3059 36.8829 18.9506 35.4223 18.9506C33.9893 18.9506 32.599 19.3209 31.5068 19.9936C30.2764 20.7515 29.4495 21.8569 29.1162 23.1895C29.0375 23.5031 28.9226 24.0867 29.0454 24.4134C31.0163 25.1629 33.1876 25.1973 35.1812 24.5106C37.1748 23.8239 38.8639 22.4596 39.9551 20.6554Z" fill="#6D6D6D"/>
<path d="M27.92 22.8158C28.2515 21.4933 28.957 20.3906 30.0517 19.4989C30.1035 19.4562 30.1428 19.4004 30.1657 19.3374C30.1885 19.2743 30.194 19.2062 30.1816 19.1403C30.1692 19.0744 30.1394 19.013 30.0952 18.9625C30.0509 18.912 29.994 18.8743 29.9303 18.8534C29.3677 18.6738 28.7254 18.5777 27.9289 18.5777C26.8122 18.5777 25.6265 18.8801 24.7344 19.4295C24.4812 19.5857 24.2328 19.6457 24.0415 19.6991C24.8094 21.3964 26.083 22.815 27.6879 23.7609L27.7719 23.7544C27.7902 23.4374 27.8398 23.123 27.92 22.8158Z" fill="#6D6D6D"/>
</svg>
