<svg xmlns="http://www.w3.org/2000/svg" xmlns:xlink="http://www.w3.org/1999/xlink" width="500" zoomAndPan="magnify" viewBox="0 0 375 374.999991" height="500" preserveAspectRatio="xMidYMid meet" version="1.0"><defs><clipPath id="9a1da4f773"><path d="M 128 327 L 165 327 L 165 344.863281 L 128 344.863281 Z M 128 327 " clip-rule="nonzero"/></clipPath><clipPath id="6ed4f19b8b"><path d="M 219 327 L 255 327 L 255 344.863281 L 219 344.863281 Z M 219 327 " clip-rule="nonzero"/></clipPath></defs><path fill="#ffcfca" d="M 202.34375 256.773438 C 202.34375 256.773438 212.160156 268.070312 233.234375 268.15625 C 266.644531 268.296875 275.191406 248.023438 275.191406 248.023438 C 275.191406 248.023438 301.210938 259.769531 317.988281 242.152344 C 334.773438 224.535156 330.742188 202.207031 330.742188 202.207031 C 342.800781 194.992188 351.136719 181.878906 352.535156 167.898438 C 353.941406 153.914062 348.378906 139.410156 337.992188 129.9375 C 340.671875 108.160156 321.917969 86.171875 299.980469 85.386719 C 297.910156 66.625 286.058594 49.214844 269.363281 40.402344 C 252.664062 31.585938 231.601562 31.625 214.9375 40.5 C 209.066406 34.539062 204.699219 29.664062 191.777344 28.621094 C 170.769531 26.921875 160.746094 40.5 160.746094 40.5 C 144.082031 31.625 123.019531 31.585938 106.320312 40.402344 C 89.625 49.214844 77.773438 66.625 75.703125 85.386719 C 53.765625 86.171875 35.003906 108.160156 37.6875 129.9375 C 27.304688 139.402344 21.742188 153.914062 23.148438 167.898438 C 24.554688 181.878906 32.882812 194.992188 44.941406 202.207031 C 44.941406 202.207031 40.914062 224.535156 57.695312 242.152344 C 74.480469 259.769531 100.488281 248.023438 100.488281 248.023438 C 100.488281 248.023438 118.144531 270.257812 142.449219 268.15625 C 163.449219 266.34375 173.339844 256.773438 173.339844 256.773438 C 173.339844 256.773438 184.574219 265.070312 202.335938 256.773438 Z M 202.34375 256.773438 " fill-opacity="1" fill-rule="nonzero"/><path fill="#ffa59b" d="M 82.859375 126.605469 C 83 114.5625 93.726562 106.851562 105.316406 108.96875 C 107.953125 109.449219 110.4375 107.855469 110.503906 105.019531 C 110.640625 99.34375 112.539062 94.023438 116.847656 90.285156 C 121.914062 85.890625 128.691406 83.882812 135.25 85.5 C 140.371094 86.765625 142.554688 78.867188 137.425781 77.601562 C 128.152344 75.3125 118.921875 77.957031 111.644531 83.988281 C 105.398438 89.167969 102.492188 96.992188 102.304688 105.019531 L 107.492188 101.070312 C 98.527344 99.429688 89.90625 101.117188 82.996094 107.316406 C 77.492188 112.25 74.753906 119.308594 74.667969 126.605469 C 74.605469 131.878906 82.800781 131.878906 82.859375 126.605469 Z M 82.859375 126.605469 " fill-opacity="1" fill-rule="nonzero"/><path fill="#ffa59b" d="M 82.480469 211.558594 C 86.886719 219.835938 93.023438 227.382812 101.085938 232.328125 C 109.609375 237.5625 120.3125 239.484375 129.941406 236.449219 C 134.957031 234.871094 132.8125 226.960938 127.765625 228.550781 C 111.1875 233.765625 96.835938 221.109375 89.554688 207.429688 C 87.078125 202.769531 80.003906 206.90625 82.480469 211.566406 Z M 82.480469 211.558594 " fill-opacity="1" fill-rule="nonzero"/><path fill="#ffa59b" d="M 266.375 83.78125 C 268.8125 84.964844 271.210938 86.238281 273.5 87.695312 C 274.585938 88.386719 275.648438 89.117188 276.671875 89.898438 C 276.21875 89.550781 276.714844 89.9375 276.90625 90.09375 C 277.15625 90.292969 277.402344 90.5 277.648438 90.707031 C 278.179688 91.15625 278.6875 91.617188 279.191406 92.09375 C 280.039062 92.902344 280.851562 93.761719 281.613281 94.65625 C 281.800781 94.886719 281.988281 95.113281 282.175781 95.339844 C 282.90625 96.246094 281.726562 94.683594 282.390625 95.636719 C 282.726562 96.117188 283.066406 96.59375 283.382812 97.09375 C 284.011719 98.085938 284.578125 99.109375 285.074219 100.171875 C 285.128906 100.285156 285.515625 101.335938 285.214844 100.480469 C 285.308594 100.753906 285.421875 101.03125 285.523438 101.304688 C 285.738281 101.914062 285.925781 102.53125 286.09375 103.152344 C 286.65625 105.21875 289.03125 106.691406 291.132812 106.011719 C 293.238281 105.328125 294.597656 103.183594 293.992188 100.96875 C 290.847656 89.355469 280.863281 81.726562 270.507812 76.707031 C 268.578125 75.777344 265.988281 76.117188 264.902344 78.179688 C 263.933594 80.011719 264.3125 82.785156 266.375 83.78125 Z M 266.375 83.78125 " fill-opacity="1" fill-rule="nonzero"/><path fill="#ffa59b" d="M 130.792969 151.597656 C 130.792969 151.597656 128.855469 144.886719 141.335938 142.601562 C 153.808594 140.320312 168.417969 142.523438 164.289062 152.460938 C 160.15625 162.402344 128.972656 162.476562 130.792969 151.597656 Z M 130.792969 151.597656 " fill-opacity="1" fill-rule="nonzero"/><path fill="#ffa59b" d="M 257.070312 139.046875 C 257.070312 139.046875 255.25 132.300781 267.761719 130.234375 C 280.273438 128.164062 294.835938 130.609375 290.546875 140.472656 C 286.246094 150.339844 255.066406 149.890625 257.070312 139.046875 Z M 257.070312 139.046875 " fill-opacity="1" fill-rule="nonzero"/><path fill="#ffffff" d="M 100.121094 87.769531 C 98.453125 89.917969 88.492188 94.375 87.074219 80.019531 C 85.652344 65.660156 104.675781 43.398438 123.65625 45.382812 C 142.640625 47.363281 122.925781 60.777344 114.609375 67.4375 C 106.289062 74.097656 104.097656 82.636719 100.121094 87.769531 Z M 100.121094 87.769531 " fill-opacity="1" fill-rule="nonzero"/><path fill="#ffffff" d="M 256.171875 50.648438 C 253.140625 44.382812 241.113281 43.996094 234.378906 45.03125 C 233.628906 45.148438 232.828125 45.3125 232.296875 45.863281 C 231.59375 46.59375 231.621094 47.8125 232.109375 48.699219 C 232.597656 49.589844 233.449219 50.214844 234.304688 50.761719 C 240.371094 54.632812 248.050781 55.863281 255.019531 54.097656 C 255.851562 53.886719 256.808594 53.488281 256.957031 52.648438 C 257.03125 52.234375 256.875 51.8125 256.679688 51.445312 C 255.535156 49.25 252.746094 48.066406 250.367188 48.753906 " fill-opacity="1" fill-rule="nonzero"/><path fill="#ffffff" d="M 259.707031 48.582031 C 257.519531 44.257812 252.597656 42.066406 248.058594 41.203125 C 243.296875 40.300781 238.445312 40.308594 233.664062 41.023438 C 231.941406 41.277344 230.382812 41.902344 229.191406 43.21875 C 227.671875 44.90625 227.316406 47.347656 228.011719 49.472656 C 229.089844 52.777344 232.53125 54.703125 235.519531 56.058594 C 241.609375 58.816406 248.324219 59.644531 254.898438 58.3125 C 256.976562 57.890625 259.066406 57.148438 260.25 55.253906 C 261.59375 53.105469 261.125 50.46875 259.667969 48.519531 C 257.238281 45.273438 253.238281 43.78125 249.28125 44.792969 C 247.207031 45.320312 245.746094 47.757812 246.425781 49.832031 C 247.121094 51.980469 249.234375 53.257812 251.464844 52.691406 C 252.214844 52.503906 251.527344 52.644531 251.363281 52.65625 C 251.585938 52.644531 251.8125 52.65625 252.035156 52.644531 C 251.875 52.65625 251.191406 52.429688 251.941406 52.636719 C 252.09375 52.675781 252.269531 52.742188 252.429688 52.777344 C 252.964844 52.878906 251.941406 52.4375 252.382812 52.757812 C 252.484375 52.832031 253.113281 53.171875 252.675781 52.890625 C 252.28125 52.644531 252.71875 52.9375 252.785156 52.992188 C 253.648438 53.679688 252.207031 52.4375 252.992188 53.199219 C 253.519531 53.722656 252.652344 55.1875 253.675781 51.773438 L 254.191406 50.054688 C 253.84375 50.242188 253.808594 50.261719 254.082031 50.125 C 254.503906 50 253.347656 50.273438 253.140625 50.320312 C 252.597656 50.441406 252.054688 50.542969 251.503906 50.621094 C 252.160156 50.523438 251.472656 50.621094 251.359375 50.636719 C 251.015625 50.664062 250.667969 50.695312 250.328125 50.722656 C 249.289062 50.789062 248.25 50.796875 247.222656 50.742188 C 246.664062 50.714844 246.117188 50.664062 245.566406 50.601562 C 245.652344 50.609375 246.117188 50.683594 245.628906 50.609375 C 245.285156 50.554688 244.945312 50.5 244.601562 50.433594 C 243.585938 50.242188 242.582031 49.984375 241.589844 49.671875 C 241.0625 49.503906 240.539062 49.324219 240.023438 49.121094 C 239.828125 49.050781 239.636719 48.976562 239.449219 48.894531 C 240.078125 49.164062 238.914062 48.628906 238.914062 48.628906 C 238.042969 48.207031 237.191406 47.730469 236.382812 47.207031 C 236.171875 47.074219 235.945312 46.933594 235.746094 46.78125 C 236.292969 47.214844 235.746094 46.773438 235.699219 46.6875 C 235.914062 47.082031 235.671875 46.933594 235.652344 46.621094 C 235.671875 46.953125 235.871094 47.203125 235.820312 47.589844 C 235.71875 48.328125 235.25 48.585938 234.773438 48.988281 C 234.160156 49.496094 234.339844 49.167969 234.714844 49.121094 C 235.117188 49.070312 235.578125 49.003906 235.972656 48.902344 C 235.886719 48.921875 234.941406 49.023438 235.671875 48.949219 C 235.851562 48.929688 236.035156 48.910156 236.214844 48.886719 C 236.589844 48.847656 236.964844 48.816406 237.34375 48.789062 C 238.980469 48.667969 240.613281 48.640625 242.246094 48.714844 C 242.988281 48.746094 243.734375 48.800781 244.46875 48.882812 C 244.683594 48.902344 244.890625 48.933594 245.105469 48.957031 C 244.160156 48.855469 244.75 48.902344 244.957031 48.941406 C 245.417969 49.023438 245.886719 49.097656 246.351562 49.195312 C 247.195312 49.371094 248.03125 49.585938 248.855469 49.859375 C 249.042969 49.917969 249.230469 49.984375 249.410156 50.054688 C 249.496094 50.085938 250.265625 50.476562 249.726562 50.171875 C 249.210938 49.886719 249.746094 50.195312 249.878906 50.261719 C 250.085938 50.367188 250.292969 50.46875 250.496094 50.582031 C 250.851562 50.78125 251.171875 51.03125 251.527344 51.230469 C 251.914062 51.453125 251.199219 51.023438 251.21875 50.988281 C 251.222656 50.984375 251.773438 51.484375 251.792969 51.503906 C 251.886719 51.59375 251.96875 51.691406 252.0625 51.78125 C 252.644531 52.34375 251.933594 51.820312 251.988281 51.632812 C 251.960938 51.71875 252.589844 52.617188 252.636719 52.71875 C 253.609375 54.632812 256.460938 55.335938 258.242188 54.191406 C 260.195312 52.929688 260.75 50.636719 259.714844 48.585938 Z M 259.707031 48.582031 " fill-opacity="1" fill-rule="nonzero"/><path fill="#ffbdc5" d="M 310.203125 185.328125 C 307.933594 187.648438 304.4375 194.207031 313.730469 197.828125 C 323.015625 201.449219 336.460938 192.59375 342.40625 177.066406 C 348.351562 161.539062 340.097656 157.429688 333.433594 157.394531 C 326.78125 157.363281 319.359375 175.941406 310.207031 185.328125 Z M 310.203125 185.328125 " fill-opacity="1" fill-rule="nonzero"/><path fill="#ffa59b" d="M 198.367188 66.625 C 199.042969 66.847656 199.707031 67.09375 200.367188 67.355469 C 199.699219 67.09375 200.441406 67.390625 200.691406 67.503906 C 200.957031 67.625 201.226562 67.75 201.484375 67.882812 C 202.703125 68.488281 203.882812 69.167969 205.015625 69.917969 C 205.308594 70.113281 205.605469 70.320312 205.890625 70.519531 C 206.039062 70.628906 206.875 71.257812 206.199219 70.730469 C 206.714844 71.128906 207.210938 71.546875 207.699219 71.972656 C 208.71875 72.878906 209.679688 73.839844 210.585938 74.859375 C 210.820312 75.125 211.054688 75.394531 211.28125 75.667969 C 211.339844 75.742188 211.949219 76.492188 211.628906 76.082031 C 211.335938 75.714844 211.984375 76.566406 212.058594 76.660156 C 212.230469 76.898438 212.398438 77.140625 212.566406 77.390625 C 213.363281 78.558594 214.085938 79.785156 214.722656 81.050781 C 214.855469 81.3125 214.984375 81.578125 215.109375 81.847656 C 215.164062 81.953125 215.605469 82.945312 215.40625 82.488281 C 215.191406 81.992188 215.558594 82.890625 215.597656 82.984375 C 215.726562 83.3125 215.847656 83.648438 215.960938 83.980469 C 216.421875 85.328125 216.785156 86.691406 217.066406 88.085938 C 217.488281 90.195312 220.105469 91.59375 222.105469 90.941406 C 224.34375 90.21875 225.421875 88.160156 224.964844 85.902344 C 222.441406 73.273438 212.714844 62.71875 200.550781 58.707031 C 198.511719 58.039062 195.984375 59.484375 195.507812 61.566406 C 194.992188 63.820312 196.191406 65.882812 198.367188 66.605469 Z M 198.367188 66.625 " fill-opacity="1" fill-rule="nonzero"/><path fill="#ffa59b" d="M 221.109375 97.925781 C 222.269531 96.558594 223.535156 95.292969 224.914062 94.148438 C 225.066406 94.023438 225.21875 93.902344 225.375 93.773438 C 225.96875 93.285156 224.960938 94.070312 225.375 93.773438 C 225.742188 93.519531 226.097656 93.246094 226.464844 92.996094 C 227.210938 92.496094 227.964844 92.019531 228.75 91.585938 C 229.484375 91.171875 230.242188 90.789062 231.003906 90.433594 C 231.226562 90.332031 231.453125 90.207031 231.6875 90.132812 C 231.425781 90.21875 231.058594 90.386719 231.535156 90.207031 C 231.949219 90.046875 232.371094 89.886719 232.792969 89.738281 C 234.535156 89.136719 236.320312 88.695312 238.136719 88.40625 C 240.257812 88.070312 241.625 85.308594 240.996094 83.367188 C 240.25 81.058594 238.230469 80.148438 235.953125 80.507812 C 228.039062 81.757812 220.5 86.03125 215.3125 92.132812 C 213.925781 93.769531 213.589844 96.351562 215.3125 97.929688 C 216.839844 99.328125 219.625 99.671875 221.109375 97.929688 Z M 221.109375 97.925781 " fill-opacity="1" fill-rule="nonzero"/><path fill="#ffbdc5" d="M 68.820312 231.9375 C 64.347656 227.007812 55.550781 212.628906 69.070312 200.386719 C 82.59375 188.144531 104.640625 198.933594 108.585938 206.53125 C 108.585938 206.53125 119.898438 207.675781 128.808594 217.507812 C 128.808594 217.507812 148.238281 202.890625 168.179688 210.199219 C 188.117188 217.507812 189.289062 225.648438 195.460938 226.644531 C 201.640625 227.640625 206.800781 216.363281 222.347656 217.703125 C 237.894531 219.042969 242.46875 232.246094 242.46875 232.246094 C 242.46875 232.246094 261.710938 227.777344 265.398438 217.171875 C 269.085938 206.566406 286.449219 202.453125 295.359375 210.75 C 304.269531 219.042969 304.089844 235.21875 291.882812 239.578125 C 279.6875 243.925781 272.761719 238.296875 271.765625 239.578125 C 270.769531 240.855469 259.996094 256.839844 240.472656 258.96875 C 213.964844 261.867188 203.496094 249.035156 203.496094 249.035156 C 203.496094 249.035156 187.292969 255.171875 172.074219 247.695312 C 172.074219 247.695312 169.738281 247.9375 163.523438 250.867188 C 149.988281 257.261719 129.621094 258.699219 116.8125 250.867188 C 104.019531 243.042969 102.109375 238.578125 99.152344 236.324219 C 98.214844 235.605469 97.089844 235.253906 95.917969 235.28125 C 90.367188 235.394531 76.21875 240.117188 68.808594 231.9375 Z M 68.820312 231.9375 " fill-opacity="1" fill-rule="nonzero"/><path fill="#ffa59b" d="M 105.378906 208.132812 C 113.238281 218.058594 127.34375 222.289062 139.429688 218.746094 C 141.550781 218.125 142.882812 215.867188 142.289062 213.707031 C 141.703125 211.589844 139.382812 210.21875 137.246094 210.847656 C 136 211.214844 134.722656 211.523438 133.429688 211.691406 C 133.992188 211.617188 133.207031 211.699219 133.007812 211.71875 C 132.71875 211.746094 132.433594 211.765625 132.144531 211.777344 C 131.496094 211.8125 130.84375 211.824219 130.195312 211.820312 C 129.546875 211.8125 128.898438 211.773438 128.246094 211.71875 C 127.886719 211.683594 127.523438 211.660156 127.167969 211.605469 C 127.617188 211.664062 127.148438 211.597656 126.96875 211.566406 C 125.609375 211.308594 124.269531 211.007812 122.957031 210.59375 C 120.640625 209.859375 118.800781 208.96875 116.523438 207.433594 C 114.738281 206.230469 112.808594 204.402344 111.175781 202.347656 C 109.800781 200.613281 106.816406 200.910156 105.378906 202.347656 C 103.664062 204.0625 103.996094 206.402344 105.378906 208.144531 Z M 105.378906 208.132812 " fill-opacity="1" fill-rule="nonzero"/><path fill="#ffa59b" d="M 43.65625 178.773438 C 47.625 184.886719 52.503906 190.300781 59.066406 193.671875 C 65.65625 197.058594 73.066406 198.332031 80.410156 197.394531 C 82.605469 197.113281 84.507812 195.714844 84.507812 193.296875 C 84.507812 191.304688 82.621094 188.921875 80.410156 189.203125 C 77.03125 189.628906 73.5 189.675781 70.386719 189.046875 C 68.980469 188.765625 67.589844 188.386719 66.238281 187.910156 C 65.910156 187.796875 65.582031 187.667969 65.253906 187.542969 C 65.039062 187.460938 64.394531 187.179688 64.925781 187.414062 C 64.34375 187.160156 63.773438 186.886719 63.210938 186.597656 C 57.882812 183.859375 53.976562 179.625 50.738281 174.644531 C 49.53125 172.789062 47.109375 172.019531 45.132812 173.171875 C 43.292969 174.25 42.457031 176.914062 43.660156 178.773438 Z M 43.65625 178.773438 " fill-opacity="1" fill-rule="nonzero"/><path fill="#000000" d="M 228.789062 124.417969 C 240.175781 129.007812 254.144531 125.742188 262.539062 116.875 C 264.058594 115.265625 264.132812 112.675781 262.539062 111.078125 C 261.007812 109.542969 258.269531 109.464844 256.742188 111.078125 C 254.914062 113.011719 253.683594 113.996094 251.3125 115.320312 C 250.75 115.636719 250.167969 115.917969 249.585938 116.203125 C 249.457031 116.269531 248.980469 116.476562 249.375 116.3125 C 249.046875 116.453125 248.707031 116.578125 248.371094 116.699219 C 247.152344 117.148438 245.910156 117.507812 244.644531 117.785156 C 244.082031 117.902344 243.511719 118.011719 242.941406 118.097656 C 242.65625 118.144531 242.660156 118.144531 242.960938 118.097656 L 242.535156 118.144531 C 242.246094 118.171875 241.957031 118.199219 241.675781 118.21875 C 240.386719 118.3125 239.09375 118.3125 237.800781 118.21875 C 237.511719 118.199219 237.230469 118.171875 236.945312 118.144531 L 236.515625 118.097656 C 236.824219 118.136719 236.828125 118.136719 236.542969 118.097656 C 235.972656 118.003906 235.410156 117.898438 234.855469 117.761719 C 233.523438 117.457031 232.222656 117.035156 230.957031 116.519531 C 228.902344 115.6875 226.460938 117.421875 225.917969 119.375 C 225.273438 121.71875 226.71875 123.585938 228.777344 124.417969 Z M 228.789062 124.417969 " fill-opacity="1" fill-rule="nonzero"/><path fill="#ffa59b" d="M 241.136719 172.644531 C 243.171875 172.992188 244.550781 175.386719 245.707031 176.945312 C 247.414062 179.25 248.976562 181.664062 250.382812 184.15625 C 253.160156 189.066406 255.25 194.269531 256.726562 199.71875 C 259.226562 198.667969 261.722656 197.617188 264.21875 196.558594 C 262.417969 193.085938 259.417969 190.273438 255.84375 188.6875 C 252.203125 187.066406 246.550781 185.867188 243.222656 188.761719 C 239.800781 191.738281 239.140625 197.101562 240.003906 201.324219 C 240.875 205.554688 243.566406 209.242188 246.914062 211.878906 C 250.449219 214.664062 255.25 216.589844 259.632812 214.601562 C 263.636719 212.789062 265.480469 208.363281 264.855469 204.15625 C 264.234375 199.929688 261.265625 195.808594 257.773438 193.414062 C 254.097656 190.890625 248.4375 191.15625 245.988281 195.292969 C 243.820312 198.953125 245.277344 204.066406 247.609375 207.300781 C 249.886719 210.46875 254.195312 213.96875 258.382812 213.144531 C 268.546875 211.148438 262.238281 193.734375 255.804688 190.796875 C 251.292969 188.734375 246.25 191.4375 245.648438 196.371094 C 245.132812 200.628906 247.113281 205.019531 249.75 208.25 C 252.375 211.472656 257.257812 215.050781 261.421875 212.421875 C 265.992188 209.535156 264.675781 203.785156 263.042969 199.589844 C 262.152344 197.292969 261.167969 194.851562 258.910156 193.558594 C 256.398438 192.121094 253.1875 192.917969 251.679688 195.398438 C 249.242188 199.410156 251.378906 205.515625 254.511719 208.492188 C 256.378906 210.265625 258.855469 211.523438 261.449219 210.667969 C 264.027344 209.816406 265.269531 207.265625 265.398438 204.703125 C 265.605469 200.507812 263.597656 194.984375 258.945312 194.183594 C 256.929688 193.832031 254.3125 194.699219 253.902344 197.039062 C 253.21875 200.996094 253.480469 205.441406 255.835938 208.859375 C 257.878906 211.804688 262.746094 213.269531 264.847656 209.496094 C 265.933594 207.554688 265.59375 204.964844 265.371094 202.851562 C 265.191406 201.167969 265.222656 199.015625 264.59375 197.414062 C 263.84375 195.519531 262.257812 194.15625 260.101562 194.484375 C 258.226562 194.765625 256.386719 196.445312 256.546875 198.507812 C 256.585938 198.980469 256.667969 199.449219 256.734375 199.925781 C 256.886719 201.035156 256.675781 199.300781 256.773438 200.226562 C 256.820312 200.667969 256.847656 201.117188 256.910156 201.550781 C 257.089844 202.828125 256.273438 202.402344 257.382812 200.6875 C 258.199219 200.058594 259.019531 199.429688 259.835938 198.808594 L 259.769531 198.820312 C 260.820312 198.960938 261.871094 199.09375 262.925781 199.234375 L 262.839844 199.175781 C 261.03125 197.898438 258.28125 198.855469 257.238281 200.648438 C 256.039062 202.695312 256.894531 204.972656 258.710938 206.25 C 261.828125 208.453125 265.117188 205.238281 265.144531 202.128906 C 265.144531 201.382812 265.035156 200.640625 264.941406 199.910156 C 264.875 199.347656 264.796875 198.785156 264.714844 198.226562 C 264.59375 197.347656 264.722656 198.132812 264.753906 198.519531 C 262.070312 198.878906 259.394531 199.242188 256.707031 199.609375 C 256.835938 199.925781 256.847656 200.328125 256.902344 200.660156 C 256.96875 201.054688 257.023438 201.457031 257.082031 201.851562 C 256.980469 201.109375 257.136719 202.300781 257.148438 202.429688 C 257.25 203.292969 257.335938 204.15625 257.378906 205.023438 C 257.398438 205.398438 257.378906 205.78125 257.402344 206.15625 C 257.402344 206.363281 257.390625 206.570312 257.371094 206.777344 C 257.371094 206.007812 257.679688 205.347656 258.28125 204.785156 L 260.089844 203.734375 C 260.9375 203.925781 261.78125 204.121094 262.632812 204.316406 C 262.5 204.113281 262.390625 203.902344 262.3125 203.679688 C 262.226562 203.15625 261.957031 202.636719 261.855469 202.105469 C 261.683594 201.175781 261.664062 200.1875 261.824219 199.25 C 260.140625 200.199219 258.460938 201.15625 256.78125 202.105469 C 257.933594 202.308594 256.761719 202.167969 256.621094 201.757812 C 256.761719 202.1875 256.949219 202.515625 257.070312 202.984375 C 257.164062 203.359375 257.15625 203.707031 257.222656 203.988281 C 257.523438 205.199219 256.835938 204.355469 257.476562 203.855469 L 259.285156 202.804688 C 261.28125 202.113281 260.28125 203.480469 259.894531 202.292969 C 259.761719 201.898438 259.347656 201.496094 259.183594 201.097656 C 259.078125 200.828125 259.003906 200.507812 258.964844 200.226562 L 258.945312 199.617188 C 259.089844 198.457031 258.789062 198.746094 258.039062 200.480469 L 255.972656 201.042969 C 254.546875 200.03125 254.128906 199.964844 254.738281 200.835938 C 254.875 201.097656 254.988281 201.363281 255.09375 201.636719 C 255.390625 202.339844 255.636719 203.0625 255.863281 203.785156 C 256.046875 204.34375 256.171875 205.421875 256.453125 205.910156 C 256.453125 206.492188 256.480469 206.542969 256.546875 206.082031 C 257.183594 205.761719 257.8125 205.433594 258.449219 205.113281 C 258.449219 205.125 256.046875 203.097656 255.824219 202.824219 C 255.085938 201.886719 254.503906 200.78125 254.15625 199.652344 C 254.015625 199.1875 253.996094 198.464844 253.769531 198.0625 C 253.328125 197.289062 254.316406 197.609375 253.402344 197.890625 C 253.921875 197.730469 252.421875 198.550781 252.429688 198.210938 C 252.429688 198.324219 253.527344 199.609375 253.628906 199.789062 C 254.363281 201.070312 254.851562 202.421875 255.15625 203.859375 C 255.261719 204.375 255.214844 205.144531 255.382812 205.640625 C 255.730469 206.679688 254.914062 205.980469 255.769531 205.613281 C 256.460938 205.425781 257.148438 205.238281 257.839844 205.050781 C 256.144531 205.238281 254.238281 202.917969 253.601562 201.410156 C 253.609375 201.4375 253.027344 199.253906 253.121094 199.289062 C 252.46875 199.878906 252.289062 200.105469 252.570312 199.957031 C 252.589844 199.945312 252.605469 199.945312 252.628906 199.953125 C 252.589844 199.851562 254.078125 200.816406 253.378906 200.332031 C 254.878906 201.371094 256.675781 203.699219 256.808594 205.5625 C 256.9375 207.339844 255.863281 207.570312 254.3125 206.953125 C 252.261719 206.144531 250.394531 204.394531 249.234375 202.546875 C 248.566406 201.476562 248.058594 200.328125 247.882812 199.0625 C 247.804688 198.472656 247.796875 197.84375 247.855469 197.253906 C 247.917969 196.699219 248.386719 195.902344 248.324219 195.40625 L 248.464844 195.164062 C 248.652344 194.785156 248.464844 194.835938 247.898438 195.339844 C 248.21875 195.539062 249.324219 195.3125 249.699219 195.359375 C 250.554688 195.460938 251.453125 195.707031 252.25 196.050781 C 254.445312 196.992188 256.050781 198.644531 257.136719 200.742188 C 259.300781 204.910156 265.832031 202.011719 264.628906 197.582031 C 262.847656 191.027344 260.203125 184.671875 256.734375 178.828125 C 254.972656 175.847656 252.980469 173.03125 250.828125 170.320312 C 248.859375 167.835938 246.585938 165.351562 243.304688 164.792969 C 241.128906 164.417969 238.890625 165.375 238.261719 167.648438 C 237.71875 169.617188 238.933594 172.308594 241.121094 172.6875 Z M 241.136719 172.644531 " fill-opacity="1" fill-rule="nonzero"/><path fill="#ffa59b" d="M 263.503906 203.632812 L 263.550781 203.125 C 262.875 204.300781 262.199219 205.480469 261.523438 206.660156 L 260.496094 206.878906 C 259.535156 206.476562 258.5625 206.074219 257.597656 205.679688 C 258.441406 206.425781 258.789062 208.078125 259.246094 209.074219 C 259.816406 210.332031 260.410156 211.578125 261.039062 212.808594 C 262.285156 215.273438 263.636719 217.6875 265.089844 220.039062 C 267.988281 224.738281 271.296875 229.207031 274.90625 233.386719 C 278.179688 237.179688 281.792969 241.15625 286.328125 243.457031 C 290.78125 245.722656 295.746094 246.277344 300.640625 245.480469 C 308.917969 244.140625 317.640625 238.78125 321.375 231.070312 C 325.339844 222.890625 324.785156 213.125 324.785156 204.277344 C 324.785156 199 316.589844 198.996094 316.589844 204.277344 C 316.589844 211.792969 317.582031 221.277344 313.691406 228.097656 C 309.894531 234.757812 300.265625 239.195312 292.789062 237.21875 C 287.988281 235.957031 284.539062 231.953125 281.378906 228.371094 C 277.953125 224.484375 274.886719 220.3125 272.160156 215.902344 C 269.414062 211.449219 267.480469 206.699219 265.078125 202.085938 C 262.554688 197.246094 255.851562 197.808594 255.300781 203.625 C 254.804688 208.875 263 208.839844 263.496094 203.625 Z M 263.503906 203.632812 " fill-opacity="1" fill-rule="nonzero"/><path fill="#000000" d="M 208.695312 145.609375 C 217.308594 142.851562 226.011719 142.046875 235.054688 143.117188 C 237.191406 143.371094 239.246094 141.050781 239.152344 139.023438 C 239.046875 136.585938 237.34375 135.199219 235.054688 134.925781 C 225.496094 133.789062 215.6875 134.769531 206.519531 137.710938 C 204.410156 138.386719 203.054688 140.554688 203.664062 142.75 C 204.230469 144.816406 206.589844 146.289062 208.703125 145.609375 Z M 208.695312 145.609375 " fill-opacity="1" fill-rule="nonzero"/><path fill="#ffa59b" d="M 58.042969 143.066406 C 47.632812 148.929688 37.582031 155.433594 27.90625 162.441406 C 19.566406 168.484375 11.15625 175.300781 6.273438 184.582031 C 1.515625 193.632812 0.121094 204.75 4.996094 214.054688 C 9.675781 222.992188 19.050781 227.910156 28.015625 231.550781 C 40.179688 236.492188 52.605469 240.511719 65.796875 241.289062 C 64.832031 238.960938 63.859375 236.625 62.894531 234.296875 C 60.820312 236.886719 58.566406 238.417969 55.484375 239.628906 C 50.644531 241.53125 52.707031 249.421875 57.660156 247.527344 C 60.820312 246.324219 63.210938 244.140625 63.785156 240.675781 C 64.394531 236.984375 61.148438 234.542969 57.769531 236.050781 C 54.03125 237.714844 50.054688 240.441406 49.921875 244.976562 C 49.808594 248.925781 52.613281 252.957031 56.824219 252.949219 C 61.515625 252.9375 65.011719 247.875 65.882812 243.714844 C 66.785156 239.382812 63.625 235.816406 59.148438 236.496094 C 54.996094 237.125 53.535156 240.304688 53.15625 244.0625 C 52.792969 247.59375 52.785156 252.480469 57.679688 252.617188 C 61.09375 252.710938 64.664062 249.449219 66.972656 247.292969 C 69.636719 244.8125 71.667969 241.796875 71.15625 237.984375 C 70.421875 232.5 64.917969 230.707031 60.5 233.585938 C 56.074219 236.472656 53.664062 241.519531 53.703125 246.730469 C 53.722656 249.589844 56.289062 251.136719 58.890625 250.679688 C 62.421875 250.066406 65.433594 247.75 66.894531 244.46875 C 69.027344 239.695312 61.964844 235.527344 59.816406 240.332031 C 59.113281 241.90625 58.390625 242.480469 56.710938 242.777344 C 58.4375 244.09375 60.164062 245.40625 61.898438 246.726562 C 61.886719 244.832031 62.355469 243.0625 63.625 241.597656 C 64.46875 240.628906 65.6875 240.78125 64.046875 239.863281 C 62.144531 238.808594 63.726562 239.355469 62.722656 239.929688 C 61.585938 240.585938 60.613281 242.085938 59.535156 242.910156 C 58.984375 243.324219 58.183594 243.640625 57.734375 244.128906 C 56.945312 244.984375 56.757812 243.71875 58.390625 244.394531 C 59.207031 245.023438 60.023438 245.652344 60.839844 246.277344 C 61.28125 246.972656 60.902344 246.691406 61.117188 246.054688 C 61.242188 245.679688 61.355469 244.832031 61.316406 244.441406 C 61.128906 242.777344 61.449219 244.664062 60.621094 244.476562 C 59.664062 243.808594 58.710938 243.144531 57.753906 242.476562 C 57.621094 242.929688 57.417969 243.351562 57.144531 243.738281 C 56.570312 244.644531 55.710938 244.671875 57.164062 245.097656 C 59.441406 245.761719 57.386719 245.359375 58.4375 245.023438 C 59.488281 244.691406 60.8125 243.605469 61.910156 243.109375 C 59.902344 241.570312 57.902344 240.023438 55.894531 238.484375 C 56 238.996094 55.867188 239.367188 55.492188 239.617188 C 56.214844 242.246094 56.945312 244.882812 57.667969 247.515625 C 62.027344 245.800781 65.714844 243.785156 68.695312 240.070312 C 70.921875 237.292969 69.542969 233.296875 65.796875 233.078125 C 52.941406 232.3125 40.378906 228.070312 28.636719 222.984375 C 18.5 218.59375 9.246094 211.503906 10.179688 199.324219 C 11.097656 187.386719 20.269531 178.378906 29.265625 171.542969 C 39.675781 163.640625 50.796875 156.519531 62.179688 150.113281 C 66.773438 147.527344 62.648438 140.449219 58.042969 143.039062 Z M 58.042969 143.066406 " fill-opacity="1" fill-rule="nonzero"/><path fill="#ffa59b" d="M 314.359375 151.886719 C 316.949219 165.769531 308.570312 181.351562 295.40625 186.679688 C 293.355469 187.507812 291.910156 189.410156 292.546875 191.71875 C 293.082031 193.660156 295.527344 195.414062 297.589844 194.578125 C 315.144531 187.476562 325.742188 168.371094 322.261719 149.710938 C 321.851562 147.535156 319.226562 146.296875 317.21875 146.851562 C 314.9375 147.480469 313.953125 149.710938 314.359375 151.894531 Z M 314.359375 151.886719 " fill-opacity="1" fill-rule="nonzero"/><path fill="#000000" d="M 165.585938 108.433594 C 163.304688 107.242188 160.351562 108.574219 158.898438 110.707031 C 157.445312 112.84375 157.144531 115.542969 156.957031 118.117188 C 156.800781 120.246094 156.722656 122.476562 157.597656 124.429688 C 158.476562 126.378906 160.597656 127.929688 162.667969 127.429688 C 165.574219 126.734375 166.308594 122.992188 166.46875 120 C 166.550781 118.492188 166.632812 116.988281 166.710938 115.480469 C 166.804688 113.6875 166.886719 111.800781 166.109375 110.179688 C 165.332031 108.558594 163.390625 107.347656 161.730469 108.019531 " fill-opacity="1" fill-rule="nonzero"/><path fill="#000000" d="M 167.636719 104.914062 C 164.871094 103.585938 162.132812 103.695312 159.378906 105.011719 C 157.082031 106.109375 155.382812 108.230469 154.414062 110.542969 C 153.394531 112.964844 153.074219 115.515625 152.886719 118.125 C 152.683594 120.894531 152.832031 123.605469 153.949219 126.183594 C 156.195312 131.335938 163.101562 133.527344 167.300781 129.324219 C 170.589844 126.03125 170.488281 120.929688 170.722656 116.613281 C 170.882812 113.585938 171.058594 110.320312 169.363281 107.648438 C 167.570312 104.820312 163.980469 102.9375 160.660156 104.082031 C 158.652344 104.777344 157.109375 106.914062 157.820312 109.109375 C 158.464844 111.105469 160.671875 112.710938 162.820312 111.960938 C 163.175781 111.839844 163.296875 111.941406 162.5 111.925781 C 162.6875 111.925781 162.988281 112 162.472656 111.875 C 161.835938 111.710938 162.40625 111.898438 162.566406 111.925781 C 162.976562 111.992188 162.226562 111.832031 162.207031 111.773438 C 162.21875 111.820312 162.660156 111.980469 162.667969 112.0625 L 162.464844 111.914062 C 162.199219 111.707031 162.199219 111.71875 162.464844 111.960938 C 162.539062 112.121094 162.632812 112.382812 162.492188 111.972656 C 162.277344 111.332031 162.605469 112.195312 162.605469 112.253906 C 162.605469 112.203125 162.359375 111.378906 162.546875 112.214844 C 162.582031 112.367188 162.613281 112.550781 162.660156 112.703125 C 162.855469 113.257812 162.640625 112.019531 162.660156 112.609375 C 162.660156 112.777344 162.6875 112.945312 162.695312 113.117188 C 162.734375 114.035156 162.675781 114.957031 162.628906 115.875 C 162.535156 117.582031 162.5 119.304688 162.332031 121.007812 C 162.320312 121.136719 162.300781 121.265625 162.292969 121.390625 C 162.257812 121.933594 162.460938 120.535156 162.332031 121.070312 C 162.265625 121.359375 162.226562 121.660156 162.160156 121.953125 C 162.09375 122.242188 162.019531 122.527344 161.929688 122.808594 C 161.890625 122.929688 161.851562 123.042969 161.8125 123.164062 C 161.582031 123.921875 162.140625 122.628906 161.890625 122.976562 C 161.832031 123.066406 161.484375 123.574219 161.484375 123.695312 C 161.460938 123.3125 162.070312 123.050781 161.703125 123.40625 C 161.648438 123.453125 161.394531 123.695312 161.390625 123.71875 C 161.390625 123.742188 162.105469 123.183594 161.769531 123.417969 C 161.609375 123.53125 161.175781 123.6875 161.765625 123.480469 C 162.460938 123.238281 161.890625 123.445312 161.816406 123.445312 C 160.992188 123.425781 162.539062 123.519531 161.992188 123.453125 C 161.835938 123.433594 161.222656 123.441406 161.863281 123.480469 C 162.472656 123.519531 162 123.445312 161.878906 123.445312 C 161.355469 123.417969 161.910156 123.058594 162.09375 123.546875 C 162.078125 123.507812 161.777344 123.359375 161.730469 123.339844 C 161.253906 123.125 162.246094 123.855469 161.882812 123.472656 C 161.789062 123.371094 161.675781 123.273438 161.578125 123.183594 C 160.988281 122.664062 161.648438 123.351562 161.664062 123.359375 C 161.507812 123.277344 161.363281 122.902344 161.289062 122.761719 C 161.242188 122.683594 161.101562 122.480469 161.101562 122.386719 L 161.269531 122.742188 L 161.167969 122.421875 C 161.128906 122.214844 161.0625 121.980469 161.007812 121.773438 C 160.988281 121.691406 160.886719 121.128906 160.972656 121.652344 C 161.066406 122.207031 160.972656 121.5 160.960938 121.359375 C 160.945312 121.191406 160.941406 121.023438 160.933594 120.847656 C 160.921875 120.394531 160.925781 119.9375 160.945312 119.492188 C 160.980469 118.660156 161.039062 117.832031 161.121094 117 C 161.132812 116.839844 161.15625 116.671875 161.167969 116.511719 C 161.242188 115.730469 161.148438 116.5 161.148438 116.625 C 161.160156 116.203125 161.289062 115.753906 161.382812 115.347656 C 161.488281 114.878906 161.617188 114.410156 161.769531 113.953125 C 161.8125 113.828125 161.859375 113.605469 161.9375 113.507812 C 161.449219 114.140625 161.863281 113.71875 162 113.472656 C 162.070312 113.332031 162.160156 113.199219 162.238281 113.058594 C 162.699219 112.214844 161.871094 113.398438 162.1875 113.085938 C 162.3125 112.957031 162.425781 112.816406 162.554688 112.691406 C 162.867188 112.382812 163.097656 112.46875 162.453125 112.710938 C 162.753906 112.597656 163.089844 112.308594 163.378906 112.140625 C 163.820312 111.878906 163.523438 112.316406 163.144531 112.242188 C 163.25 112.261719 163.539062 112.128906 163.652344 112.09375 C 164.363281 111.875 163.402344 112.195312 163.34375 112.113281 C 163.371094 112.15625 163.933594 112.113281 163.988281 112.113281 C 164.382812 112.0625 163.589844 112.101562 163.539062 112.054688 C 163.664062 112.082031 163.785156 112.113281 163.914062 112.15625 C 164.199219 112.253906 164.082031 112.203125 163.542969 111.992188 C 165.460938 112.910156 168.023438 112.589844 169.109375 110.527344 C 170.066406 108.707031 169.699219 105.921875 167.648438 104.9375 Z M 167.636719 104.914062 " fill-opacity="1" fill-rule="nonzero"/><path fill="#5e4d5c" d="M 331.085938 -9.8125 C 335.195312 -9.914062 340.8125 -9.203125 344.167969 -6.820312 C 347.519531 -4.445312 350.554688 1.464844 350.613281 5.582031 C 350.675781 9.660156 349.957031 12.796875 347.890625 16.3125 C 342.40625 25.621094 334.914062 33.734375 326.070312 39.945312 C 325.085938 40.636719 324.046875 41.316406 322.871094 41.546875 C 319.921875 42.113281 317.042969 39.4375 316.628906 36.457031 C 316.222656 33.488281 317.742188 30.527344 319.824219 28.367188 C 321.90625 26.203125 324.53125 24.660156 326.980469 22.917969 C 329.429688 21.179688 331.800781 19.121094 333.019531 16.386719 C 333.796875 14.636719 334.0625 12.664062 333.769531 10.777344 C 333.5 9.042969 332.671875 7.269531 331.125 6.453125 C 328.117188 4.867188 324.695312 7.578125 322.507812 10.171875 C 320.320312 12.769531 317.425781 15.796875 314.144531 14.90625 C 311.640625 14.222656 310.269531 11.339844 310.429688 8.75 C 310.589844 6.15625 311.910156 3.800781 313.195312 1.546875 C 313.195312 1.546875 318.570312 -9.511719 331.070312 -9.8125 Z M 331.085938 -9.8125 " fill-opacity="1" fill-rule="nonzero"/><path fill="#5e4d5c" d="M 320.71875 47.179688 C 321.070312 48.140625 321.402344 49.65625 321.476562 50.667969 C 321.71875 53.960938 319.742188 56.613281 316.589844 57.597656 C 315.445312 57.953125 314.226562 58.023438 313.027344 58.039062 C 311.300781 58.058594 309.707031 57.457031 308.132812 56.746094 C 306.714844 56.109375 305.644531 54.765625 305.195312 54.042969 C 303.519531 51.359375 303.640625 48.679688 305.195312 45.976562 C 305.984375 44.597656 307.363281 43.097656 308.835938 42.496094 C 309.707031 42.136719 311.542969 41.546875 312.472656 41.667969 C 314.507812 41.921875 315.003906 42.09375 316.789062 43.105469 C 316.789062 43.105469 319.6875 44.363281 320.726562 47.179688 Z M 320.71875 47.179688 " fill-opacity="1" fill-rule="nonzero"/><path fill="#ffffff" d="M 318.945312 48.746094 C 318.851562 48.488281 318.726562 48.207031 318.472656 48.085938 C 318.214844 47.972656 317.835938 48.140625 317.863281 48.417969 C 317.632812 48.507812 317.351562 49.578125 317.464844 50.347656 C 317.535156 50.796875 317.996094 51.71875 318.222656 52.109375 C 318.285156 52.207031 318.363281 52.308594 318.472656 52.34375 C 318.746094 52.4375 318.964844 52.09375 319.039062 51.8125 C 319.3125 50.808594 319.28125 49.726562 318.945312 48.746094 Z M 318.945312 48.746094 " fill-opacity="1" fill-rule="nonzero"/><path fill="#ffffff" d="M 320.257812 48.386719 C 320.117188 47.984375 319.957031 47.65625 319.675781 47.328125 C 319.347656 46.941406 318.867188 46.734375 318.371094 46.699219 C 317.394531 46.621094 316.480469 47.4375 316.488281 48.425781 C 316.714844 48.03125 316.9375 47.644531 317.164062 47.25 C 316.714844 47.460938 316.480469 47.957031 316.320312 48.394531 C 316.1875 48.753906 316.140625 49.144531 316.09375 49.519531 C 316.046875 49.925781 316.0625 50.339844 316.140625 50.75 C 316.207031 51.097656 316.367188 51.425781 316.503906 51.753906 C 316.824219 52.496094 317.230469 53.445312 318.097656 53.667969 C 318.886719 53.867188 319.640625 53.5 320.070312 52.824219 C 320.304688 52.457031 320.414062 52.015625 320.480469 51.59375 C 320.648438 50.523438 320.605469 49.429688 320.257812 48.394531 C 320.03125 47.71875 319.308594 47.203125 318.578125 47.441406 C 317.910156 47.65625 317.378906 48.398438 317.628906 49.121094 C 317.734375 49.4375 317.808594 49.757812 317.855469 50.078125 L 317.808594 49.71875 C 317.875 50.199219 317.875 50.675781 317.808594 51.15625 L 317.855469 50.796875 C 317.816406 51.078125 317.769531 51.363281 317.660156 51.625 L 317.800781 51.296875 C 317.769531 51.371094 317.726562 51.433594 317.679688 51.5 L 317.894531 51.222656 C 317.863281 51.265625 317.820312 51.304688 317.78125 51.339844 L 318.054688 51.125 C 318.054688 51.125 318.003906 51.15625 317.96875 51.171875 L 318.296875 51.03125 L 318.25 51.042969 L 318.613281 50.996094 C 318.613281 50.996094 318.542969 51.003906 318.511719 50.996094 L 318.871094 51.042969 L 318.820312 51.03125 L 319.148438 51.171875 C 319.105469 51.15625 319.074219 51.136719 319.046875 51.117188 L 319.320312 51.332031 C 319.320312 51.332031 319.261719 51.277344 319.242188 51.246094 L 319.453125 51.519531 C 319.207031 51.175781 319.027344 50.757812 318.867188 50.375 L 319.007812 50.703125 C 318.914062 50.476562 318.8125 50.234375 318.773438 49.992188 L 318.820312 50.355469 C 318.777344 50.066406 318.792969 49.777344 318.824219 49.492188 L 318.777344 49.851562 C 318.820312 49.578125 318.871094 49.308594 318.980469 49.054688 L 318.839844 49.382812 C 318.867188 49.316406 318.898438 49.25 318.941406 49.191406 L 318.726562 49.464844 C 318.726562 49.464844 318.757812 49.425781 318.777344 49.410156 L 318.503906 49.625 C 318.503906 49.625 318.523438 49.609375 318.539062 49.605469 C 318.960938 49.402344 319.21875 48.875 319.214844 48.425781 L 319.214844 48.378906 C 319.195312 48.5 319.179688 48.621094 319.167969 48.742188 C 319.167969 48.707031 319.171875 48.679688 319.1875 48.652344 L 319.046875 48.980469 C 319.046875 48.980469 319.074219 48.929688 319.09375 48.910156 L 318.878906 49.183594 C 318.878906 49.183594 318.917969 49.136719 318.945312 49.121094 L 318.671875 49.335938 C 318.671875 49.335938 318.726562 49.304688 318.757812 49.289062 L 318.429688 49.429688 C 318.476562 49.410156 318.523438 49.398438 318.570312 49.390625 L 318.210938 49.4375 C 318.261719 49.4375 318.304688 49.4375 318.355469 49.4375 L 317.996094 49.390625 C 317.996094 49.390625 318.0625 49.402344 318.089844 49.417969 L 317.761719 49.277344 C 317.792969 49.289062 317.828125 49.308594 317.863281 49.335938 L 317.585938 49.121094 C 317.648438 49.167969 317.699219 49.222656 317.753906 49.289062 L 317.539062 49.015625 C 317.601562 49.101562 317.648438 49.191406 317.6875 49.277344 L 317.546875 48.949219 C 317.566406 49.003906 317.59375 49.0625 317.613281 49.117188 C 317.734375 49.457031 317.921875 49.746094 318.242188 49.933594 C 318.539062 50.105469 318.964844 50.171875 319.292969 50.074219 C 319.957031 49.859375 320.507812 49.117188 320.246094 48.394531 Z M 320.257812 48.386719 " fill-opacity="1" fill-rule="nonzero"/><path fill="#ffffff" d="M 345.03125 -2.832031 C 344.253906 -2.898438 343.398438 -2.71875 343.042969 -2.023438 C 342.800781 -1.554688 342.800781 -0.996094 342.8125 -0.46875 C 342.875 3.1875 343.0625 6.960938 341.757812 10.375 C 340.867188 12.703125 339.265625 14.960938 339.585938 17.4375 C 339.707031 18.378906 340.191406 19.363281 341.074219 19.726562 C 341.777344 20.011719 342.585938 19.851562 343.269531 19.523438 C 345.367188 18.535156 346.515625 16.25 347.171875 14.035156 C 348.613281 9.164062 348.371094 3.808594 346.488281 -0.910156 C 346.488281 -0.910156 345.753906 -2.769531 345.03125 -2.832031 Z M 345.03125 -2.832031 " fill-opacity="1" fill-rule="nonzero"/><path fill="#5e4d5c" d="M 363.992188 41.464844 C 366.902344 42.429688 370.667969 44.34375 372.421875 46.859375 C 374.175781 49.378906 374.816406 54.289062 373.828125 57.1875 C 372.84375 60.066406 371.550781 62.085938 369.214844 64.035156 C 363.019531 69.191406 355.714844 72.996094 347.941406 75.125 C 347.078125 75.359375 346.175781 75.582031 345.292969 75.449219 C 343.074219 75.105469 341.738281 72.503906 342.191406 70.308594 C 342.652344 68.117188 344.46875 66.425781 346.476562 65.433594 C 348.484375 64.445312 350.714844 64.023438 352.871094 63.414062 C 355.027344 62.8125 357.210938 61.96875 358.753906 60.347656 C 359.738281 59.316406 360.421875 58 360.695312 56.597656 C 360.945312 55.3125 360.8125 53.863281 359.925781 52.898438 C 358.21875 51.03125 355.132812 52.066406 352.945312 53.339844 C 350.753906 54.609375 347.957031 56.011719 345.878906 54.558594 C 344.292969 53.445312 344.058594 51.078125 344.824219 49.304688 C 345.585938 47.53125 347.105469 46.203125 348.578125 44.945312 C 348.578125 44.945312 355.140625 38.539062 363.992188 41.480469 Z M 363.992188 41.464844 " fill-opacity="1" fill-rule="nonzero"/><path fill="#5e4d5c" d="M 339.726562 78.386719 C 339.726562 79.144531 339.582031 80.292969 339.378906 81.023438 C 338.722656 83.398438 336.667969 84.757812 334.203125 84.652344 C 333.308594 84.609375 332.4375 84.355469 331.59375 84.0625 C 330.375 83.640625 329.410156 82.816406 328.480469 81.921875 C 327.644531 81.117188 327.234375 79.898438 327.101562 79.28125 C 326.597656 76.980469 327.363281 75.125 329.136719 73.621094 C 330.039062 72.851562 331.386719 72.148438 332.570312 72.09375 C 333.273438 72.0625 334.707031 72.109375 335.335938 72.429688 C 336.703125 73.117188 337.003906 73.367188 338 74.523438 C 338 74.523438 339.722656 76.136719 339.734375 78.378906 Z M 339.726562 78.386719 " fill-opacity="1" fill-rule="nonzero"/><path fill="#ffa59b" d="M 146.332031 242.789062 C 145.160156 249.8125 146.238281 256.945312 146.914062 263.96875 C 147.636719 271.476562 148.453125 278.972656 149.371094 286.464844 C 151.199219 301.363281 153.402344 316.214844 155.972656 331.007812 C 156.875 336.195312 164.769531 333.992188 163.871094 328.832031 C 161.429688 314.761719 159.308594 300.640625 157.566406 286.46875 C 156.703125 279.421875 155.925781 272.367188 155.234375 265.300781 C 154.601562 258.761719 153.140625 251.519531 154.230469 244.972656 C 155.09375 239.8125 147.203125 237.59375 146.332031 242.796875 Z M 146.332031 242.789062 " fill-opacity="1" fill-rule="nonzero"/><g clip-path="url(#9a1da4f773)"><path fill="#ffa59b" d="M 159.441406 327.441406 C 153.410156 326.9375 147.234375 326.8125 141.34375 328.417969 C 136.703125 329.683594 125.777344 334.066406 129.277344 340.621094 C 130.898438 343.652344 134.402344 344.195312 137.5 344.503906 C 140.648438 344.816406 143.835938 344.476562 146.925781 343.886719 C 149.71875 343.351562 152.445312 342.515625 155.117188 341.542969 C 157.785156 340.574219 160.101562 339.695312 162.003906 337.554688 C 163.164062 336.25 164.066406 334.871094 164.199219 333.089844 C 164.394531 330.578125 162.652344 328.445312 160.257812 327.875 C 158.597656 327.480469 156.824219 327.875 155.222656 328.363281 C 154.652344 328.539062 154.085938 328.738281 153.515625 328.914062 C 153.214844 329.007812 152.894531 329.066406 152.597656 329.167969 C 151.769531 329.449219 153.199219 329.167969 152.355469 329.214844 C 150.222656 329.316406 148.160156 331.027344 148.257812 333.3125 C 148.351562 335.445312 150.0625 337.515625 152.355469 337.40625 C 153.777344 337.339844 155.109375 337.003906 156.453125 336.570312 C 157.015625 336.390625 157.578125 336.195312 158.148438 336.042969 C 158.382812 335.980469 158.628906 335.941406 158.863281 335.867188 C 158.390625 335.914062 158.300781 335.929688 158.597656 335.90625 C 159.066406 335.90625 158.8125 335.8125 157.832031 335.652344 L 156.359375 334.179688 C 156.84375 331.46875 156.808594 330.640625 156.261719 331.675781 C 156.019531 332.03125 156.039062 332.011719 156.328125 331.617188 C 156.054688 331.925781 155.75 332.214844 155.46875 332.507812 C 155.34375 332.628906 155.214844 332.742188 155.082031 332.855469 C 155.492188 332.554688 155.523438 332.519531 155.175781 332.761719 C 154.855469 332.9375 154.886719 332.9375 155.277344 332.75 C 155.042969 332.84375 154.8125 332.929688 154.578125 333.015625 C 152.316406 333.886719 150.015625 334.683594 147.671875 335.304688 C 145.449219 335.894531 143.5 336.269531 141.425781 336.375 C 140.277344 336.4375 139.132812 336.429688 137.988281 336.335938 C 138.125 336.351562 136.589844 336.164062 137.125 336.242188 C 136.796875 336.1875 136.476562 336.128906 136.148438 336.0625 C 135.707031 335.921875 135.6875 335.941406 136.09375 336.128906 C 135.679688 335.882812 135.667969 335.902344 136.054688 336.167969 C 135.265625 339.523438 135.386719 340.71875 136.410156 339.761719 C 136.589844 339.617188 136.597656 339.601562 136.429688 339.722656 C 136.671875 339.542969 136.910156 339.367188 137.160156 339.199219 C 138.023438 338.613281 138.933594 338.082031 139.871094 337.621094 C 141.214844 336.957031 143.359375 336.289062 145.285156 335.882812 C 149.746094 334.949219 154.761719 335.230469 159.445312 335.621094 C 161.589844 335.800781 163.636719 333.613281 163.542969 331.523438 C 163.4375 329.152344 161.742188 327.613281 159.445312 327.425781 Z M 159.441406 327.441406 " fill-opacity="1" fill-rule="nonzero"/></g><path fill="#ffa59b" d="M 229.25 244.964844 C 230.347656 251.511719 228.890625 258.753906 228.246094 265.292969 C 227.558594 272.359375 226.78125 279.414062 225.917969 286.464844 C 224.183594 300.632812 222.054688 314.757812 219.609375 328.828125 C 218.710938 333.980469 226.605469 336.195312 227.511719 331 C 230.082031 316.210938 232.285156 301.363281 234.113281 286.457031 C 235.003906 279.1875 235.800781 271.914062 236.507812 264.625 C 237.210938 257.394531 238.363281 250.003906 237.152344 242.78125 C 236.28125 237.59375 228.386719 239.796875 229.25 244.957031 Z M 229.25 244.964844 " fill-opacity="1" fill-rule="nonzero"/><g clip-path="url(#6ed4f19b8b)"><path fill="#ffa59b" d="M 224.042969 335.632812 C 228.734375 335.246094 233.742188 334.964844 238.203125 335.894531 C 240.136719 336.296875 242.257812 336.964844 243.617188 337.636719 C 244.554688 338.097656 245.464844 338.617188 246.332031 339.214844 C 246.285156 339.179688 247.429688 339.949219 246.933594 339.65625 C 248.050781 340.761719 248.210938 339.601562 247.429688 336.1875 C 247.816406 335.914062 247.804688 335.902344 247.386719 336.148438 C 247.789062 335.96875 247.769531 335.941406 247.335938 336.082031 C 247.09375 336.136719 246.847656 336.183594 246.605469 336.222656 C 246.351562 336.269531 246.023438 336.316406 245.492188 336.355469 C 244.347656 336.445312 243.203125 336.457031 242.058594 336.398438 C 239.957031 336.28125 238.042969 335.90625 235.8125 335.324219 C 233.582031 334.742188 231.328125 333.96875 229.136719 333.128906 C 228.828125 333.007812 228.515625 332.890625 228.207031 332.769531 C 228.59375 332.957031 228.628906 332.957031 228.308594 332.78125 C 227.644531 332.472656 228.695312 333.222656 228.144531 332.65625 C 227.816406 332.3125 227.46875 332 227.15625 331.644531 C 227.441406 332.039062 227.464844 332.058594 227.222656 331.703125 C 226.671875 330.660156 226.640625 331.496094 227.121094 334.207031 C 226.632812 334.695312 226.144531 335.183594 225.648438 335.679688 L 224.730469 335.929688 C 225.113281 335.953125 225.148438 335.949219 224.832031 335.921875 C 224.5625 335.882812 224.550781 335.886719 224.796875 335.933594 C 224.917969 335.960938 225.039062 335.988281 225.152344 336.023438 C 225.789062 336.183594 226.40625 336.398438 227.027344 336.597656 C 228.375 337.03125 229.699219 337.367188 231.125 337.433594 C 233.269531 337.535156 235.316406 335.480469 235.222656 333.335938 C 235.121094 331.035156 233.421875 329.347656 231.125 329.242188 C 230.382812 329.207031 231.105469 329.242188 231.238281 329.273438 C 230.9375 329.207031 230.636719 329.132812 230.34375 329.046875 C 229.832031 328.898438 229.332031 328.734375 228.828125 328.570312 C 227.550781 328.15625 226.246094 327.789062 224.890625 327.742188 C 220.515625 327.589844 217.824219 332.09375 220.152344 335.847656 C 221.613281 338.195312 223.726562 339.785156 226.265625 340.773438 C 228.988281 341.839844 231.761719 342.796875 234.613281 343.484375 C 237.519531 344.1875 240.546875 344.648438 243.539062 344.644531 C 246.613281 344.644531 250.617188 344.460938 252.980469 342.226562 C 254.183594 341.089844 254.847656 339.601562 254.804688 337.941406 C 254.753906 335.695312 253.214844 334.226562 251.550781 332.960938 C 249.289062 331.234375 246.757812 329.992188 244.082031 329.046875 C 237.679688 326.792969 230.710938 326.910156 224.042969 327.46875 C 221.914062 327.640625 219.835938 329.226562 219.945312 331.5625 C 220.039062 333.632812 221.753906 335.847656 224.042969 335.660156 Z M 224.042969 335.632812 " fill-opacity="1" fill-rule="nonzero"/></g></svg>