<svg xmlns="http://www.w3.org/2000/svg" xmlns:xlink="http://www.w3.org/1999/xlink" width="500" zoomAndPan="magnify" viewBox="0 0 375 374.999991" height="500" preserveAspectRatio="xMidYMid meet" version="1.0"><path fill="#7738c7" d="M 67.949219 209.8125 C 30.421875 209.8125 0 240.230469 0 277.757812 C 0 315.285156 30.421875 345.707031 67.949219 345.707031 C 79.867188 345.707031 91.578125 342.570312 101.902344 336.613281 C 103.644531 342.632812 104.628906 350.511719 100.230469 355.585938 C 92.304688 364.734375 81.121094 372.542969 92.101562 372.542969 C 102.429688 372.542969 136.148438 351.410156 124.1875 315.890625 C 131.816406 304.640625 135.898438 291.355469 135.898438 277.757812 C 135.898438 240.234375 105.476562 209.8125 67.949219 209.8125 Z M 67.949219 209.8125 " fill-opacity="1" fill-rule="nonzero"/><path fill="#ffffff" d="M 36.085938 280.859375 C 36.085938 280.859375 36.628906 271.574219 48.25 268.113281 C 63.226562 263.648438 71.382812 275.34375 63.074219 286.320312 C 54.769531 297.292969 55.941406 306.476562 58.203125 312.0625 C 60.46875 317.644531 67.039062 318.835938 66.121094 311.570312 C 65.199219 304.304688 70.421875 295.871094 76.320312 287.832031 C 84.570312 276.585938 81.769531 244.957031 52.988281 249.988281 C 29.472656 254.101562 23.890625 271.398438 23.808594 277.882812 C 23.726562 284.367188 25.070312 289.578125 29.53125 290.070312 C 33.992188 290.566406 36.113281 287.183594 36.085938 280.859375 Z M 36.085938 280.859375 " fill-opacity="1" fill-rule="nonzero"/><path fill="#171d8f" d="M 119.726562 280.433594 C 101.402344 280.359375 85.1875 280.765625 85.1875 280.765625 C 85.1875 280.765625 93.726562 305.976562 107.347656 315.125 C 119.296875 323.148438 118.417969 346.652344 101.976562 352.863281 C 101.523438 353.828125 100.957031 354.746094 100.230469 355.585938 C 92.304688 364.734375 81.121094 372.542969 92.101562 372.542969 C 102.429688 372.542969 136.148438 351.410156 124.1875 315.894531 C 131.265625 305.457031 135.300781 293.253906 135.835938 280.652344 C 130.511719 280.527344 125.039062 280.457031 119.726562 280.433594 Z M 119.726562 280.433594 " fill-opacity="1" fill-rule="nonzero"/><path fill="#ffc517" d="M 152.515625 0.0273438 C 68.207031 0.292969 0 68.710938 0 153.019531 C 0 237.515625 68.496094 306.011719 152.992188 306.011719 C 164.351562 306.011719 175.675781 304.746094 186.757812 302.238281 C 206.484375 326.882812 245.167969 370.40625 273.894531 372.285156 C 314.027344 374.910156 306.074219 354.457031 287.546875 354.457031 C 251.894531 354.457031 252.472656 298.566406 252.523438 269.207031 C 286.453125 240.140625 305.984375 197.699219 305.980469 153.019531 C 305.980469 68.523438 237.484375 0.0273438 152.992188 0.0273438 C 152.832031 0.0273438 152.671875 0.0273438 152.515625 0.0273438 Z M 152.515625 0.0273438 " fill-opacity="1" fill-rule="nonzero"/><path fill="#ffffff" d="M 103.113281 110.953125 C 103.113281 110.953125 116.476562 89.308594 148.949219 96.066406 C 190.800781 104.777344 195.238281 143.515625 160.988281 159.148438 C 126.738281 174.785156 117.628906 198.40625 115.828125 214.792969 C 114.027344 231.175781 128.296875 242.574219 135.519531 223.890625 C 142.738281 205.207031 166.265625 191.691406 190.90625 180 C 225.371094 163.644531 259.714844 83.871094 183.890625 58.597656 C 121.945312 37.949219 86.042969 72.335938 77.421875 87.839844 C 68.800781 103.34375 65.273438 117.628906 75.363281 124.617188 C 85.457031 131.601562 94.960938 126.207031 103.113281 110.953125 Z M 103.113281 110.953125 " fill-opacity="1" fill-rule="nonzero"/><path fill="#ffac17" d="M 209.894531 161.617188 C 209.894531 161.617188 196.667969 194.972656 220.246094 240.976562 C 243.820312 286.980469 186.757812 302.238281 186.757812 302.238281 C 206.484375 326.882812 245.167969 370.40625 273.894531 372.285156 C 314.03125 374.910156 306.078125 354.460938 287.550781 354.460938 C 251.894531 354.460938 252.472656 298.566406 252.523438 269.210938 C 269.339844 254.804688 282.613281 237.113281 291.730469 217.492188 C 274.609375 190.964844 248.851562 166.199219 209.894531 161.617188 Z M 209.894531 161.617188 " fill-opacity="1" fill-rule="nonzero"/><path fill="#ff4b3d" d="M 286.914062 78.066406 C 239.957031 78.066406 201.886719 116.132812 201.886719 163.09375 C 201.886719 210.050781 239.953125 248.121094 286.914062 248.121094 C 294.679688 248.121094 302.40625 247.054688 309.878906 244.957031 C 314.546875 259.695312 324.210938 276.640625 344.207031 279.75 C 375.007812 284.542969 324.515625 270.574219 336.910156 231.867188 C 358.917969 215.867188 371.941406 190.300781 371.941406 163.09375 C 371.941406 116.132812 333.875 78.066406 286.914062 78.066406 Z M 286.914062 78.066406 " fill-opacity="1" fill-rule="nonzero"/><path fill="#ffffff" d="M 115.585938 241.835938 C 115.585938 241.835938 100.058594 241.835938 98.332031 253.625 C 96.609375 265.414062 102.933594 275.476562 117.882812 272.027344 C 132.835938 268.574219 133.699219 238.386719 115.585938 241.835938 Z M 115.585938 241.835938 " fill-opacity="1" fill-rule="nonzero"/><path fill="#ffffff" d="M 260.5 151.105469 C 260.5 151.105469 261.253906 138.234375 277.363281 133.433594 C 298.128906 127.246094 309.429688 143.457031 297.917969 158.675781 C 286.402344 173.890625 288.023438 186.621094 291.164062 194.363281 C 294.304688 202.105469 303.414062 203.753906 302.136719 193.683594 C 300.863281 183.613281 308.105469 171.921875 316.28125 160.773438 C 327.71875 145.183594 323.835938 101.332031 283.929688 108.308594 C 251.328125 114.007812 243.59375 137.988281 243.480469 146.980469 C 243.363281 155.96875 245.230469 163.191406 251.414062 163.878906 C 257.597656 164.566406 260.535156 159.871094 260.5 151.105469 Z M 260.5 151.105469 " fill-opacity="1" fill-rule="nonzero"/><path fill="#ffffff" d="M 297.566406 206.484375 C 297.566406 206.484375 290.640625 210.222656 292.707031 215.894531 C 294.777344 221.570312 300.019531 224.535156 305.855469 219.398438 C 311.699219 214.261719 304.816406 200.585938 297.566406 206.484375 Z M 297.566406 206.484375 " fill-opacity="1" fill-rule="nonzero"/><path fill="#ffffff" d="M 62.824219 320.804688 C 62.824219 320.804688 57.828125 323.5 59.320312 327.59375 C 60.8125 331.6875 64.59375 333.828125 68.804688 330.121094 C 73.015625 326.414062 68.050781 316.550781 62.824219 320.804688 Z M 62.824219 320.804688 " fill-opacity="1" fill-rule="nonzero"/><path fill="#cf1531" d="M 367.53125 136.0625 C 361.367188 140.394531 357.625 148.082031 357.625 160.203125 C 357.625 228.109375 278.738281 246.40625 278.738281 246.40625 C 278.738281 246.40625 279.457031 247.496094 279.660156 247.808594 C 282.074219 248.015625 284.496094 248.121094 286.917969 248.121094 C 294.679688 248.121094 302.40625 247.054688 309.878906 244.960938 C 314.546875 259.695312 324.210938 276.640625 344.207031 279.75 C 375.011719 284.542969 324.515625 270.574219 336.910156 231.867188 C 358.921875 215.867188 371.941406 190.300781 371.941406 163.09375 C 371.941406 153.902344 370.449219 144.773438 367.53125 136.0625 Z M 367.53125 136.0625 " fill-opacity="1" fill-rule="nonzero"/></svg>