<svg xmlns="http://www.w3.org/2000/svg" xmlns:xlink="http://www.w3.org/1999/xlink" width="500" zoomAndPan="magnify" viewBox="0 0 375 374.999991" height="500" preserveAspectRatio="xMidYMid meet" version="1.0"><path fill="#e6e6eb" d="M 353.410156 127.226562 L 247.773438 21.589844 C 228.964844 14.757812 208.667969 11.03125 187.5 11.03125 C 90.035156 11.03125 11.03125 90.035156 11.03125 187.5 C 11.03125 284.964844 90.035156 363.96875 187.5 363.96875 C 284.964844 363.96875 363.96875 284.964844 363.96875 187.5 C 363.96875 166.332031 360.242188 146.035156 353.410156 127.226562 Z M 353.410156 127.226562 " fill-opacity="1" fill-rule="nonzero"/><path fill="#6e7889" d="M 237.890625 148.007812 L 211.457031 105.308594 C 178.210938 87.332031 137.082031 111.292969 137.082031 149.683594 C 137.082031 177.53125 159.65625 200.101562 187.5 200.101562 C 216.433594 200.101562 238.992188 175.871094 237.890625 148.007812 Z M 237.890625 148.007812 " fill-opacity="1" fill-rule="nonzero"/><path fill="#10dff5" d="M 275.734375 250.125 L 275.734375 275.734375 L 99.265625 275.734375 L 99.265625 250.125 C 103.515625 221.816406 128.59375 200.101562 158.089844 200.101562 C 165.207031 200.101562 209.746094 200.101562 216.910156 200.101562 C 246.40625 200.101562 271.484375 221.816406 275.734375 250.125 Z M 275.734375 250.125 " fill-opacity="1" fill-rule="nonzero"/><path fill="#03e48c" d="M 363.96875 88.234375 C 363.96875 102.464844 360.125 115.785156 353.410156 127.226562 C 329.242188 168.46875 274.269531 177.792969 237.890625 148.007812 C 196.269531 113.917969 201.324219 48.808594 247.773438 21.589844 C 259.214844 14.875 272.535156 11.03125 286.765625 11.03125 C 329.40625 11.03125 363.96875 45.59375 363.96875 88.234375 Z M 363.96875 88.234375 " fill-opacity="1" fill-rule="nonzero"/><path fill="#e6e6eb" d="M 273.453125 112.578125 L 251.394531 90.519531 C 247.085938 86.210938 247.085938 79.230469 251.394531 74.921875 C 255.699219 70.613281 262.683594 70.613281 266.992188 74.921875 L 281.25 89.179688 L 306.539062 63.890625 C 310.847656 59.585938 317.832031 59.585938 322.136719 63.890625 C 326.445312 68.199219 326.445312 75.183594 322.136719 79.488281 L 289.050781 112.578125 C 284.742188 116.886719 277.757812 116.886719 273.453125 112.578125 Z M 273.453125 112.578125 " fill-opacity="1" fill-rule="nonzero"/><path fill="#d7d6e8" d="M 187.5 375 C 83.875 375 0 291.140625 0 187.5 C 0 83.875 83.859375 0 187.5 0 C 209.488281 0 231.035156 3.777344 251.535156 11.222656 C 257.261719 13.300781 260.21875 19.628906 258.140625 25.355469 C 256.058594 31.078125 249.730469 34.035156 244.007812 31.957031 C 225.925781 25.386719 206.914062 22.058594 187.5 22.058594 C 96.277344 22.058594 22.058594 96.277344 22.058594 187.5 C 22.058594 278.722656 96.277344 352.941406 187.5 352.941406 C 278.722656 352.941406 352.941406 278.722656 352.941406 187.5 C 352.941406 168.085938 349.613281 149.074219 343.042969 130.992188 C 340.964844 125.269531 343.921875 118.941406 349.648438 116.859375 C 355.367188 114.78125 361.699219 117.738281 363.777344 123.464844 C 371.222656 143.964844 375 165.511719 375 187.5 C 375 291.125 291.140625 375 187.5 375 Z M 187.5 375 " fill-opacity="1" fill-rule="nonzero"/><path fill="#08c07a" d="M 286.765625 176.46875 C 238.113281 176.46875 198.53125 136.886719 198.53125 88.234375 C 198.53125 39.582031 238.113281 0 286.765625 0 C 335.417969 0 375 39.582031 375 88.234375 C 375 136.886719 335.417969 176.46875 286.765625 176.46875 Z M 286.765625 22.058594 C 250.273438 22.058594 220.589844 51.746094 220.589844 88.234375 C 220.589844 124.726562 250.273438 154.410156 286.765625 154.410156 C 323.253906 154.410156 352.941406 124.726562 352.941406 88.234375 C 352.941406 51.746094 323.253906 22.058594 286.765625 22.058594 Z M 286.765625 22.058594 " fill-opacity="1" fill-rule="nonzero"/></svg>