<svg width="65" height="32" viewBox="0 0 65 32" fill="none" xmlns="http://www.w3.org/2000/svg">
<path d="M28.3404 8.56055C28.0565 8.27665 27.5984 8.27665 27.3155 8.56055L26.5374 9.33773L25.7592 8.56055C25.4753 8.27665 25.0172 8.27665 24.7343 8.56055C24.4514 8.84445 24.4514 9.3035 24.7343 9.58539L25.5125 10.3626L24.7353 11.1397C24.4514 11.4236 24.4514 11.8827 24.7353 12.1646C24.8773 12.3065 25.0625 12.377 25.2488 12.377C25.435 12.377 25.6192 12.3065 25.7612 12.1646L26.5374 11.3874L27.3155 12.1656C27.4575 12.3075 27.6427 12.378 27.828 12.378C28.0132 12.378 28.1994 12.3075 28.3414 12.1656C28.6243 11.8817 28.6243 11.4226 28.3414 11.1407L27.5622 10.3626L28.3394 9.58539C28.6233 9.3025 28.6233 8.84244 28.3404 8.56055Z" fill="#6D6D6D"/>
<path d="M44.1748 6.67383C44.1748 5.19999 42.9748 4 41.501 4H34.1238C33.3506 4 32.6661 4.33019 32.1748 4.85369C31.6835 4.33021 30.999 4 30.2258 4H22.8486C21.3748 4 20.1748 5.19999 20.1748 6.67383V14.051C20.1748 14.8242 20.505 15.5087 21.0285 16C20.505 16.4913 20.1748 17.1758 20.1748 17.949V25.3262C20.1748 26.8 21.3748 28 22.8486 28H30.2258C30.999 28 31.6835 27.6698 32.1748 27.1463C32.6661 27.6698 33.3506 28 34.1238 28H41.501C42.9748 28 44.1748 26.8 44.1748 25.3262V17.949C44.1748 17.1758 43.8446 16.4913 43.3211 16C43.8446 15.5087 44.1748 14.8242 44.1748 14.051V6.67383ZM31.45 25.3262C31.45 26.0027 30.9023 26.5503 30.2258 26.5503H22.8486C22.1721 26.5503 21.6245 26.0027 21.6245 25.3262V17.949C21.6245 17.2725 22.1721 16.7248 22.8486 16.7248H30.2258C30.9023 16.7248 31.45 17.2725 31.45 17.949V25.3262ZM31.45 14.051C31.45 14.7275 30.9023 15.2752 30.2258 15.2752H22.8486C22.1721 15.2752 21.6245 14.7275 21.6245 14.051V6.67383C21.6245 5.99732 22.1721 5.44966 22.8486 5.44966H30.2258C30.9023 5.44966 31.45 5.99732 31.45 6.67383V14.051ZM42.7251 25.3262C42.7251 26.0027 42.1775 26.5503 41.501 26.5503H34.1238C33.4473 26.5503 32.8996 26.0027 32.8996 25.3262V17.949C32.8996 17.2725 33.4473 16.7248 34.1238 16.7248H41.501C42.1775 16.7248 42.7251 17.2725 42.7251 17.949V25.3262ZM42.7251 14.051C42.7251 14.7275 42.1775 15.2752 41.501 15.2752H34.1238C33.4473 15.2752 32.8996 14.7275 32.8996 14.051V6.67383C32.8996 5.99732 33.4473 5.44966 34.1238 5.44966H41.501C42.1775 5.44966 42.7251 5.99732 42.7251 6.67383V14.051Z" fill="#6D6D6D"/>
<path d="M39.2744 8.68945L37.0938 10.4472L36.4657 9.64582C36.218 9.33274 35.763 9.27434 35.4479 9.523C35.1328 9.77065 35.0774 10.2257 35.3251 10.5408L36.4063 11.92C36.5261 12.072 36.7022 12.1717 36.8945 12.1928C36.9217 12.1958 36.9489 12.1978 36.9771 12.1978C37.1422 12.1978 37.3022 12.1415 37.4321 12.0378L40.1845 9.81998C40.4966 9.5683 40.5449 9.11226 40.2943 8.80019C40.0426 8.48812 39.5864 8.43879 39.2744 8.68945Z" fill="#6D6D6D"/>
<path d="M28.3404 19.8357C28.0565 19.5518 27.5984 19.5518 27.3155 19.8357L26.5374 20.6129L25.7592 19.8347C25.4753 19.5508 25.0172 19.5508 24.7343 19.8347C24.4514 20.1186 24.4514 20.5777 24.7343 20.8596L25.5125 21.6377L24.7353 22.4149C24.4514 22.6988 24.4514 23.1579 24.7353 23.4398C24.8773 23.5817 25.0625 23.6522 25.2488 23.6522C25.435 23.6522 25.6192 23.5817 25.7612 23.4398L26.5374 22.6626L27.3155 23.4408C27.4575 23.5827 27.6427 23.6532 27.828 23.6532C28.0132 23.6532 28.1994 23.5827 28.3414 23.4408C28.6243 23.1569 28.6243 22.6978 28.3414 22.4159L27.5622 21.6377L28.3394 20.8606C28.6233 20.5777 28.6233 20.1176 28.3404 19.8357Z" fill="#6D6D6D"/>
<path d="M36.0095 23.4397C36.1514 23.5816 36.3366 23.6521 36.5229 23.6521C36.7092 23.6521 36.8934 23.5816 37.0353 23.4397L37.8125 22.6625L38.5907 23.4407C38.7326 23.5826 38.9178 23.6531 39.1031 23.6531C39.2883 23.6531 39.4746 23.5826 39.6165 23.4407C39.8994 23.1568 39.8994 22.6977 39.6165 22.4158L38.8373 21.6377L39.6145 20.8605C39.8984 20.5766 39.8984 20.1175 39.6145 19.8356C39.3306 19.5517 38.8726 19.5517 38.5897 19.8356L37.8125 20.6128L37.0343 19.8346C36.7504 19.5507 36.2924 19.5507 36.0095 19.8346C35.7266 20.1185 35.7266 20.5776 36.0095 20.8595L36.7877 21.6377L36.0105 22.4148C35.7266 22.6977 35.7266 23.1578 36.0095 23.4397Z" fill="#6D6D6D"/>
</svg>
